<?xml version="1.0" encoding="UTF-8"?>
<svg width="232px" height="232px" viewBox="0 0 232 232" version="1.1" xmlns="http://www.w3.org/2000/svg" xmlns:xlink="http://www.w3.org/1999/xlink">
    <title>atoms/img/ilustraciones/big/aliados_sectores_publicos</title>
    <defs>
        <polygon id="path-1" points="0 0.31498167 231.092716 0.31498167 231.092716 178.999862 0 178.999862"></polygon>
        <path d="M7.425,54.904 C2.404,63.692 0.05,72.976 0,82.352 L0,82.352 L0,82.963 C0.298,137.922 79.42,195.701 164.212,174.515 L164.212,174.515 C256.296,151.507 244.284,46.201 182.593,17.088 L182.593,17.088 C159.572,6.224 134.159,0.315 109.54,0.315 L109.54,0.315 C68.185,0.317 29.083,17 7.425,54.904 L7.425,54.904 Z" id="path-3"></path>
    </defs>
    <g id="atoms/img/ilustraciones/big/aliados_sectores_publicos" stroke="none" stroke-width="1" fill="none" fill-rule="evenodd">
        <path d="M131.565355,46.5902606 C194.516445,24.0660485 285.583476,108.909503 191.142779,170.204958 C96.7029606,231.500412 -43.0225545,138.378776 12.7418091,80.1625939 C35.3301727,56.5803212 53.4296879,79.7082606 131.565355,46.5902606" id="Fill-1" fill="#F1EFEF"></path>
        <g id="Group-57" transform="translate(0.000000, 25.000000)">
            <g id="Group-9" transform="translate(0.000000, 0.942000)">
                <g id="Group-3" transform="translate(0.000000, 3.000000)" fill="#F1EFEF">
                    <path d="M7.4248,54.904 C41.9768,-5.566 120.9028,-12.025 182.5928,17.089 C244.2838,46.202 256.2958,151.507 164.2118,174.515 C64.6328,199.396 -27.1262,115.374 7.4248,54.904" id="Fill-1"></path>
                </g>
                <line x1="146.4189" y1="0.0573" x2="146.4189" y2="20.1863" id="Stroke-4" stroke="#686868" stroke-width="2" stroke-linecap="round" stroke-linejoin="round"></line>
                <g id="Group-8" transform="translate(0.000000, 3.000000)">
                    <mask id="mask-2" fill="white">
                        <use xlink:href="#path-1"></use>
                    </mask>
                    <g id="Clip-7"></g>
                    <path d="M7.4248,54.904 C41.9768,-5.566 120.9028,-12.025 182.5928,17.089 C244.2838,46.202 256.2958,151.507 164.2118,174.515 C64.6328,199.396 -27.1262,115.374 7.4248,54.904" id="Fill-6" fill="#FFFFFF" mask="url(#mask-2)"></path>
                </g>
            </g>
            <g id="Group-56" transform="translate(0.000000, 3.942000)">
                <mask id="mask-4" fill="white">
                    <use xlink:href="#path-3"></use>
                </mask>
                <use id="Clip-11" fill="#F1EFEF" xlink:href="#path-3"></use>
                <polygon id="Fill-10" fill="#CAC9C9" mask="url(#mask-4)" points="48.892 86.158 110.567 86.158 110.567 73.143 48.892 73.143"></polygon>
                <path d="M101.6338,68.2545 L190.8088,68.2545 C190.8088,68.2545 194.2458,14.1095 146.2208,14.1095 C98.1958,14.1095 101.6338,68.2545 101.6338,68.2545" id="Fill-12" fill="#002E6D" mask="url(#mask-4)"></path>
                <polygon id="Fill-13" fill="#676767" mask="url(#mask-4)" points="90.289 81.17 198.618 81.17 198.618 61.248 90.289 61.248"></polygon>
                <polygon id="Fill-14" fill="#676767" mask="url(#mask-4)" points="48.892 155.991 90.289 155.991 90.289 86.158 48.892 86.158"></polygon>
                <polygon id="Fill-15" fill="#676767" mask="url(#mask-4)" points="151.756 155.991 234.551 155.991 234.551 86.158 151.756 86.158"></polygon>
                <polygon id="Fill-16" fill="#CAC9C9" mask="url(#mask-4)" points="117.9326 38.9518 85.3936 76.5968 113.2306 76.5968 143.5816 38.9518"></polygon>
                <polygon id="Fill-17" fill="#333333" mask="url(#mask-4)" points="90.3418 75.942 90.2888 155.991 151.7558 155.991 151.7558 76.597 120.1478 40.837"></polygon>
                <polygon id="Fill-18" fill="#FFFFFF" mask="url(#mask-4)" points="85.394 89.612 151.756 89.612 151.756 76.597 85.394 76.597"></polygon>
                <polygon id="Fill-19" fill="#CAC9C9" mask="url(#mask-4)" points="172.876 86.158 234.551 86.158 234.551 73.143 172.876 73.143"></polygon>
                <polygon id="Fill-20" fill="#FFFFFF" mask="url(#mask-4)" points="99.4688 72.3903 119.1218 49.5123 137.8628 71.8773"></polygon>
                <polygon id="Fill-21" fill="#FFFFFF" mask="url(#mask-4)" points="90.289 155.991 97.164 155.991 97.164 89.612 90.289 89.612"></polygon>
                <polygon id="Fill-22" fill="#FFFFFF" mask="url(#mask-4)" points="115.228 155.991 122.104 155.991 122.104 89.612 115.228 89.612"></polygon>
                <polygon id="Fill-23" fill="#FFFFFF" mask="url(#mask-4)" points="139.346 155.991 146.221 155.991 146.221 89.612 139.346 89.612"></polygon>
                <polygon id="Fill-24" fill="#C3E4EB" mask="url(#mask-4)" points="175.242 113.849 182.922 113.849 182.922 106.169 175.242 106.169"></polygon>
                <polygon id="Fill-25" fill="#C3E4EB" mask="url(#mask-4)" points="188.894 113.849 196.574 113.849 196.574 106.169 188.894 106.169"></polygon>
                <polygon id="Fill-26" fill="#C3E4EB" mask="url(#mask-4)" points="202.546 113.849 210.226 113.849 210.226 106.169 202.546 106.169"></polygon>
                <polygon id="Fill-27" fill="#C3E4EB" mask="url(#mask-4)" points="216.198 113.849 223.878 113.849 223.878 106.169 216.198 106.169"></polygon>
                <polygon id="Fill-28" fill="#C3E4EB" mask="url(#mask-4)" points="175.242 145.53 182.922 145.53 182.922 118.962 175.242 118.962"></polygon>
                <polygon id="Fill-29" fill="#C3E4EB" mask="url(#mask-4)" points="188.894 145.53 196.574 145.53 196.574 118.962 188.894 118.962"></polygon>
                <polygon id="Fill-30" fill="#C3E4EB" mask="url(#mask-4)" points="202.546 145.53 210.226 145.53 210.226 118.962 202.546 118.962"></polygon>
                <polygon id="Fill-31" fill="#C3E4EB" mask="url(#mask-4)" points="216.198 145.53 223.878 145.53 223.878 118.962 216.198 118.962"></polygon>
                <polygon id="Fill-32" fill="#C3E4EB" mask="url(#mask-4)" points="58.743 113.849 66.423 113.849 66.423 106.169 58.743 106.169"></polygon>
                <polygon id="Fill-33" fill="#C3E4EB" mask="url(#mask-4)" points="72.394 113.849 80.075 113.849 80.075 106.169 72.394 106.169"></polygon>
                <polygon id="Fill-34" fill="#C3E4EB" mask="url(#mask-4)" points="58.743 145.53 66.423 145.53 66.423 118.962 58.743 118.962"></polygon>
                <polygon id="Fill-35" fill="#C3E4EB" mask="url(#mask-4)" points="72.394 145.53 80.075 145.53 80.075 118.962 72.394 118.962"></polygon>
                <polygon id="Fill-36" fill="#333333" mask="url(#mask-4)" points="151.607 155.991 169.271 155.991 169.271 89.658 151.607 89.658"></polygon>
                <polygon id="Fill-37" fill="#CAC9C9" mask="url(#mask-4)" points="117.8672 38.9518 151.7562 76.5968 177.6702 76.5968 143.5822 38.9518"></polygon>
                <polygon id="Fill-38" fill="#949494" mask="url(#mask-4)" points="151.756 89.612 177.67 89.612 177.67 76.597 151.756 76.597"></polygon>
                <path d="M42.2637,129.9128 C43.4637,127.3398 45.6997,128.2128 47.4067,128.3678 C49.2897,128.5388 48.0917,127.1658 47.7477,125.1058 C47.4067,123.0488 45.5207,122.5328 43.1197,119.9578 C40.7217,117.3848 43.6347,112.4098 45.8647,112.7518 C48.0917,113.0968 47.7477,115.4128 49.2897,115.4988 C51.3517,115.6118 51.2617,114.3818 51.1757,112.7518 C50.9947,109.2888 49.9787,106.4038 50.6637,103.8318 C51.1037,102.1788 52.7307,100.6868 54.3007,100.0918 C54.3127,100.0758 54.3257,100.0608 54.3357,100.0568 C54.6667,99.8648 55.0667,99.7918 55.4977,99.8148 C55.9307,99.7918 56.3297,99.8648 56.6607,100.0568 C56.6737,100.0608 56.6867,100.0788 56.6967,100.0918 C58.2687,100.6868 59.8957,102.1788 60.3347,103.8318 C61.0207,106.4038 60.0037,109.2888 59.8207,112.7518 C59.7357,114.3818 59.6447,115.6118 61.7067,115.4988 C63.2487,115.4128 62.9047,113.0968 65.1347,112.7518 C67.3627,112.4098 70.2787,117.3848 67.8767,119.9578 C65.4787,122.5328 63.5927,123.0488 63.2487,125.1058 C62.9077,127.1658 61.7067,128.5388 63.5927,128.3678 C65.2977,128.2128 67.5347,127.3398 68.7367,129.9128 C69.9367,132.4848 68.3917,139.1778 61.8767,140.7228 C58.2107,141.5928 56.7167,141.7258 55.4977,141.5268 C54.2837,141.7258 52.7857,141.5928 49.1187,140.7228 C42.6077,139.1778 41.0627,132.4848 42.2637,129.9128" id="Fill-39" fill="#91C044" mask="url(#mask-4)"></path>
                <line x1="55.3232" y1="159.8854" x2="55.3232" y2="109.0994" id="Fill-40" fill="#1D2B4D" mask="url(#mask-4)"></line>
                <polygon id="Fill-41" fill="#1A1B3A" mask="url(#mask-4)" points="55.149 159.885 55.499 159.885 55.499 109.099 55.149 109.099"></polygon>
                <line x1="55.2432" y1="123.3063" x2="48.2872" y2="117.3553" id="Fill-42" fill="#1D2B4D" mask="url(#mask-4)"></line>
                <polygon id="Fill-43" fill="#1A1B3A" mask="url(#mask-4)" points="55.1289 123.4401 55.3579 123.1731 48.3999 117.2221 48.1729 117.4881"></polygon>
                <line x1="55.3037" y1="137.5661" x2="49.8267" y2="132.3191" id="Fill-44" fill="#1D2B4D" mask="url(#mask-4)"></line>
                <polygon id="Fill-45" fill="#1A1B3A" mask="url(#mask-4)" points="55.1826 137.693 55.4246 137.44 49.9496 132.193 49.7066 132.446"></polygon>
                <line x1="55.2432" y1="123.3063" x2="62.2012" y2="117.3553" id="Fill-46" fill="#1D2B4D" mask="url(#mask-4)"></line>
                <polygon id="Fill-47" fill="#1A1B3A" mask="url(#mask-4)" points="55.3564 123.4401 62.3154 117.4881 62.0884 117.2221 55.1294 123.1731"></polygon>
                <line x1="55.2432" y1="137.7379" x2="61.1722" y2="132.3189" id="Fill-48" fill="#1D2B4D" mask="url(#mask-4)"></line>
                <polygon id="Fill-49" fill="#1A1B3A" mask="url(#mask-4)" points="55.3613 137.8669 61.2903 132.4489 61.0533 132.1899 55.1253 137.6089"></polygon>
                <path d="M21.625,114.4919 C23.079,111.3759 25.785,112.4329 27.854,112.6219 C30.135,112.8289 28.685,111.1659 28.268,108.6719 C27.854,106.1789 25.569,105.5549 22.662,102.4359 C19.758,99.3209 23.285,93.2959 25.986,93.7099 C28.685,94.1279 28.268,96.9319 30.135,97.0359 C32.632,97.1739 32.522,95.6839 32.419,93.7099 C32.2,89.5159 30.968,86.0219 31.799,82.9069 C32.331,80.9049 34.302,79.0989 36.202,78.3779 C36.218,78.3589 36.233,78.3409 36.245,78.3349 C36.646,78.1029 37.13,78.0139 37.653,78.0429 C38.177,78.0139 38.66,78.1029 39.062,78.3349 C39.077,78.3409 39.092,78.3619 39.104,78.3779 C41.008,79.0989 42.979,80.9049 43.511,82.9069 C44.342,86.0219 43.109,89.5159 42.888,93.7099 C42.784,95.6839 42.675,97.1739 45.172,97.0359 C47.039,96.9319 46.622,94.1279 49.323,93.7099 C52.021,93.2959 55.552,99.3209 52.645,102.4359 C49.74,105.5549 47.456,106.1789 47.039,108.6719 C46.626,111.1659 45.172,112.8289 47.456,112.6219 C49.521,112.4329 52.23,111.3759 53.685,114.4919 C55.139,117.6079 53.268,125.7129 45.379,127.5829 C40.938,128.6369 39.128,128.7989 37.653,128.5569 C36.182,128.7989 34.368,128.6369 29.928,127.5829 C22.042,125.7129 20.171,117.6079 21.625,114.4919" id="Fill-50" fill="#82BA39" mask="url(#mask-4)"></path>
                <polygon id="Fill-51" fill="#1D2B4D" mask="url(#mask-4)" points="37.441 159.885 37.868 159.885 37.868 89.285 37.441 89.285"></polygon>
                <polygon id="Fill-52" fill="#1D2B4D" mask="url(#mask-4)" points="37.4902 106.9176 37.6382 106.4916 29.2152 99.2846 28.9312 99.5726"></polygon>
                <polygon id="Fill-53" fill="#1D2B4D" mask="url(#mask-4)" points="37.6826 124.2809 37.9656 123.9689 30.7856 117.4069 30.5016 117.7189"></polygon>
                <polygon id="Fill-54" fill="#1D2B4D" mask="url(#mask-4)" points="37.7861 106.9079 37.6391 106.4919 46.0661 99.2849 46.3471 99.5729"></polygon>
                <polygon id="Fill-55" fill="#1D2B4D" mask="url(#mask-4)" points="37.627 124.2809 37.344 123.9689 44.524 117.4069 44.808 117.7189"></polygon>
            </g>
        </g>
    </g>
</svg>