<?xml version="1.0" encoding="UTF-8"?>
<svg width="272px" height="176px" viewBox="0 0 272 176" version="1.1" xmlns="http://www.w3.org/2000/svg" xmlns:xlink="http://www.w3.org/1999/xlink">
    <title>deco_03</title>
    <g id="Home" stroke="none" stroke-width="1" fill="none" fill-rule="evenodd">
        <g id="CORREOS_1920_home_12c" transform="translate(-1632.000000, -2208.000000)" fill="#FFCD00">
            <g id="Photo+box-Copy" transform="translate(0.000000, 1864.000000)">
                <g id="Group-33" transform="translate(1632.000000, 344.000000)">
                    <circle id="Oval" cx="16" cy="16" r="16"></circle>
                    <circle id="Oval-Copy-14" cx="16" cy="64" r="16"></circle>
                    <circle id="Oval-Copy-20" cx="16" cy="112" r="16"></circle>
                    <circle id="Oval-Copy-26" cx="16" cy="160" r="16"></circle>
                    <circle id="Oval-Copy-10" cx="112" cy="16" r="16"></circle>
                    <circle id="Oval-Copy-15" cx="112" cy="64" r="16"></circle>
                    <circle id="Oval-Copy-21" cx="112" cy="112" r="16"></circle>
                    <circle id="Oval-Copy-27" cx="112" cy="160" r="16"></circle>
                    <circle id="Oval-Copy-12" cx="208" cy="16" r="16"></circle>
                    <circle id="Oval-Copy-16" cx="208" cy="64" r="16"></circle>
                    <circle id="Oval-Copy-22" cx="208" cy="112" r="16"></circle>
                    <circle id="Oval-Copy-28" cx="208" cy="160" r="16"></circle>
                    <circle id="Oval-Copy-9" cx="64" cy="16" r="16"></circle>
                    <circle id="Oval-Copy-17" cx="64" cy="64" r="16"></circle>
                    <circle id="Oval-Copy-23" cx="64" cy="112" r="16"></circle>
                    <circle id="Oval-Copy-29" cx="64" cy="160" r="16"></circle>
                    <circle id="Oval-Copy-11" cx="160" cy="16" r="16"></circle>
                    <circle id="Oval-Copy-18" cx="160" cy="64" r="16"></circle>
                    <circle id="Oval-Copy-24" cx="160" cy="112" r="16"></circle>
                    <circle id="Oval-Copy-30" cx="160" cy="160" r="16"></circle>
                    <circle id="Oval-Copy-13" cx="256" cy="16" r="16"></circle>
                    <circle id="Oval-Copy-19" cx="256" cy="64" r="16"></circle>
                    <circle id="Oval-Copy-25" cx="256" cy="112" r="16"></circle>
                    <circle id="Oval-Copy-31" cx="256" cy="160" r="16"></circle>
                </g>
            </g>
        </g>
    </g>
</svg>