<?xml version="1.0" encoding="UTF-8"?>
<svg width="232px" height="133px" viewBox="0 0 232 133" version="1.1" xmlns="http://www.w3.org/2000/svg" xmlns:xlink="http://www.w3.org/1999/xlink">
    <title>atoms/img/ilustraciones/howto/distintivos_ambientales</title>
    <defs>
        <polygon id="path-1" points="0 0.0284609665 231.981888 0.0284609665 231.981888 131.955309 0 131.955309"></polygon>
        <polygon id="path-3" points="0 132.789383 231.981888 132.789383 231.981888 0.862453532 0 0.862453532"></polygon>
    </defs>
    <g id="UI-KIT" stroke="none" stroke-width="1" fill="none" fill-rule="evenodd">
        <g id="Correos_web_UIkit_54_Illustrations" transform="translate(-400.000000, -7918.000000)">
            <g id="Group" transform="translate(400.000000, 7912.000000)">
                <g id="Group-29" transform="translate(0.000000, 6.000000)">
                    <g id="Group-3" transform="translate(0.000000, 0.833993)">
                        <mask id="mask-2" fill="white">
                            <use xlink:href="#path-1"></use>
                        </mask>
                        <g id="Clip-2"></g>
                        <path d="M77.3239613,12.3461948 C22.2545784,-14.5994409 -47.4506409,51.7913695 45.2346528,111.947503 C137.919084,172.1045 272.523069,83.028574 220.319619,23.5787896 C168.115307,-35.8709948 132.393344,39.2918305 77.3239613,12.3461948" id="Fill-1" fill="#F2F1F1" mask="url(#mask-2)"></path>
                    </g>
                    <path d="M79.6742335,60.3902037 C79.6742335,44.6530141 66.9168208,31.894739 51.1796312,31.894739 C35.4424416,31.894739 22.6841665,44.6530141 22.6841665,60.3902037 C22.6841665,76.1273933 35.4424416,88.8856684 51.1796312,88.8856684 C66.9168208,88.8856684 79.6742335,76.1273933 79.6742335,60.3902037" id="Fill-4" fill="#026D97"></path>
                    <mask id="mask-4" fill="white">
                        <use xlink:href="#path-3"></use>
                    </mask>
                    <g id="Clip-7"></g>
                    <polygon id="Fill-6" fill="#FFFFFF" mask="url(#mask-4)" points="55.9663346 57.5489368 69.0463048 57.5489368 69.0463048 44.4689665 55.9663346 44.4689665"></polygon>
                    <polygon id="Fill-8" fill="#FFFFFF" mask="url(#mask-4)" points="55.9663346 74.1951524 71.7742454 74.1951524 71.7742454 61.1151822 55.9663346 61.1151822"></polygon>
                    <polygon id="Fill-9" fill="#949494" mask="url(#mask-4)" points="43.0424684 84.0417844 59.3152416 84.0417844 59.3152416 78.2987063 43.0424684 78.2987063"></polygon>
                    <path d="M38.0735286,62.2936387 C38.1097517,63.0646721 38.2235955,63.8072446 38.4141978,64.523081 C38.6039375,65.2397799 38.9075212,65.8512595 39.3249487,66.3583822 C39.7415138,66.8663673 40.3391941,67.1199286 41.118852,67.1199286 C41.917484,67.1199286 42.5289636,66.8663673 42.9550156,66.3583822 C43.3802052,65.8512595 43.6889636,65.2397799 43.8795658,64.523081 C44.070168,63.8072446 44.182287,63.0646721 44.2193725,62.2936387 C44.2547331,61.5234677 44.2737071,60.8662781 44.2737071,60.3220699 C44.2737071,59.9960625 44.2693948,59.6010587 44.2599078,59.1387836 C44.2504208,58.677371 44.2150602,58.2012967 44.1512387,57.711423 C44.0874171,57.2224119 43.9968595,56.737713 43.8795658,56.2564639 C43.7614097,55.7769398 43.5846067,55.345713 43.3491569,54.965371 C43.1128446,54.585029 42.8144357,54.2771331 42.4522052,54.0408208 C42.0891123,53.805371 41.6449487,53.6872149 41.118852,53.6872149 C40.5927554,53.6872149 40.1537665,53.805371 39.8001606,54.0408208 C39.4465546,54.2771331 39.1567703,54.585029 38.9308074,54.965371 C38.7031197,55.345713 38.5263167,55.7769398 38.3995361,56.2564639 C38.2727554,56.737713 38.1821978,57.2224119 38.1278632,57.711423 C38.0735286,58.2012967 38.0416178,58.677371 38.0329933,59.1387836 C38.0235063,59.6010587 38.0191941,59.9960625 38.0191941,60.3220699 C38.0191941,60.8662781 38.0373056,61.5234677 38.0735286,62.2936387 M34.7151346,55.6587836 C35.086852,54.398739 35.5905249,53.3879435 36.2244283,52.6272595 C36.8591941,51.865713 37.5983167,51.3215048 38.4409338,50.9954974 C39.2835509,50.6686275 40.1761903,50.5056238 41.118852,50.5056238 C42.0804877,50.5056238 42.9817517,50.6686275 43.8252312,50.9954974 C44.6678483,51.3215048 45.4112833,51.865713 46.0546736,52.6272595 C46.6980639,53.3879435 47.2051866,54.398739 47.5777665,55.6587836 C47.9486216,56.9188283 48.1349115,58.4729695 48.1349115,60.3220699 C48.1349115,62.2255048 47.9486216,63.8167316 47.5777665,65.0948877 C47.2051866,66.3721814 46.6980639,67.3924639 46.0546736,68.153148 C45.4112833,68.9146944 44.6678483,69.4589026 43.8252312,69.78491 C42.9817517,70.1109175 42.0804877,70.2747836 41.118852,70.2747836 C40.1761903,70.2747836 39.2835509,70.1109175 38.4409338,69.78491 C37.5983167,69.4589026 36.8591941,68.9146944 36.2244283,68.153148 C35.5905249,67.3924639 35.086852,66.3721814 34.7151346,65.0948877 C34.3434171,63.8167316 34.1579896,62.2255048 34.1579896,60.3220699 C34.1579896,58.4729695 34.3434171,56.9188283 34.7151346,55.6587836" id="Fill-10" fill="#000000" mask="url(#mask-4)"></path>
                    <path d="M125.108027,60.3902037 C125.108027,44.6530141 112.350614,31.894739 96.6134245,31.894739 C80.8762349,31.894739 68.1179599,44.6530141 68.1179599,60.3902037 C68.1179599,76.1273933 80.8762349,88.8856684 96.6134245,88.8856684 C112.350614,88.8856684 125.108027,76.1273933 125.108027,60.3902037" id="Fill-11" fill="#026D97" mask="url(#mask-4)"></path>
                    <path d="M96.6133383,31.8951703 C80.8761487,31.8951703 68.1178736,44.6525829 68.1178736,60.3906349 C68.1178736,76.1278245 80.8761487,88.8852372 96.6133383,88.8852372" id="Fill-12" fill="#6DB538" mask="url(#mask-4)"></path>
                    <polygon id="Fill-13" fill="#FFFFFF" mask="url(#mask-4)" points="101.399524 57.5489368 114.479494 57.5489368 114.479494 44.4689665 101.399524 44.4689665"></polygon>
                    <polygon id="Fill-14" fill="#FFFFFF" mask="url(#mask-4)" points="101.399524 74.1951524 117.207435 74.1951524 117.207435 61.1151822 101.399524 61.1151822"></polygon>
                    <polygon id="Fill-15" fill="#949494" mask="url(#mask-4)" points="88.4765204 84.0417844 104.749294 84.0417844 104.749294 78.2987063 88.4765204 78.2987063"></polygon>
                    <polygon id="Fill-16" fill="#000000" mask="url(#mask-4)" points="90.6481784 45.3242617 90.6481784 46.9396372 86.0366394 46.9396372 86.0366394 48.8102989 90.2686989 48.8102989 90.2686989 50.3023435 86.0366394 50.3023435 86.0366394 52.4429532 90.7456357 52.4429532 90.7456357 54.0583286 84.1159554 54.0583286 84.1159554 45.3242617"></polygon>
                    <path d="M89.7187985,58.255545 C89.6040922,58.0727048 89.4617874,57.911426 89.2901591,57.772571 C89.1193933,57.633716 88.9253413,57.5259093 88.7097279,57.4482885 C88.493252,57.3706677 88.2664268,57.3318572 88.0301145,57.3318572 C87.5980253,57.3318572 87.2314825,57.4155152 86.9296238,57.5828312 C86.6277651,57.7501472 86.3828283,57.9743851 86.1956758,58.255545 C86.0085234,58.5375673 85.8713933,58.8575375 85.785148,59.2163182 C85.6997651,59.5750989 85.6575048,59.9459539 85.6575048,60.3288833 C85.6575048,60.6962885 85.6997651,61.0524818 85.785148,61.3991881 C85.8713933,61.7458944 86.0085234,62.0581026 86.1956758,62.3349502 C86.3828283,62.6126602 86.6277651,62.8343108 86.9296238,63.0016268 C87.2314825,63.1689428 87.5980253,63.2526007 88.0301145,63.2526007 C88.6183078,63.2526007 89.0762706,63.0732104 89.4065903,62.7135673 C89.73691,62.3556491 89.9387242,61.8821621 90.0120327,61.2956937 L91.8714825,61.2956937 C91.8223227,61.8416268 91.695542,62.3349502 91.492003,62.7756639 C91.2884639,63.2155152 91.0193784,63.591545 90.6847465,63.9003033 C90.3501145,64.2107866 89.959423,64.4470989 89.5109472,64.6109651 C89.0624714,64.7731063 88.569148,64.8550394 88.0301145,64.8550394 C87.361713,64.8550394 86.7605829,64.7386082 86.2258617,64.5066082 C85.692003,64.2746082 85.2418022,63.9537755 84.874397,63.5466974 C84.5078543,63.1387569 84.2266944,62.6592327 84.0309175,62.1089874 C83.8342781,61.558742 83.7368208,60.965374 83.7368208,60.3288833 C83.7368208,59.6768684 83.8342781,59.071426 84.0309175,58.5125561 C84.2266944,57.9545487 84.5078543,57.4664 84.874397,57.0515599 C85.2418022,56.6349948 85.692003,56.3089874 86.2258617,56.0726751 C86.7605829,55.8355004 87.361713,55.7173442 88.0301145,55.7173442 C88.512226,55.7173442 88.9658766,55.7863405 89.394516,55.9251955 C89.8222929,56.0640506 90.2052223,56.2658647 90.5441665,56.5306379 C90.8822483,56.7962736 91.1625457,57.1240059 91.3824714,57.5155599 C91.602397,57.9071138 91.741252,58.3555896 91.798174,58.8609874 L89.9387242,58.8609874 C89.9059509,58.6410617 89.8326424,58.4392476 89.7187985,58.255545" id="Fill-17" fill="#000000" mask="url(#mask-4)"></path>
                    <path d="M85.7854929,72.0004669 C85.8717383,72.3471732 86.0080059,72.6593814 86.1960208,72.936229 C86.3831732,73.213939 86.62811,73.4355896 86.9299688,73.6029056 C87.2309651,73.7702216 87.5983703,73.8538796 88.0304595,73.8538796 C88.4625487,73.8538796 88.8299539,73.7702216 89.1309502,73.6029056 C89.4328089,73.4355896 89.6777457,73.213939 89.8648981,72.936229 C90.052913,72.6593814 90.1891807,72.3471732 90.275426,72.0004669 C90.3608089,71.6537606 90.4030691,71.2967048 90.4030691,70.9301621 C90.4030691,70.5463703 90.3608089,70.1763777 90.275426,69.817597 C90.1891807,69.4579539 90.052913,69.1379836 89.8648981,68.8559613 C89.6777457,68.5756639 89.4328089,68.351426 89.1309502,68.18411 C88.8299539,68.0167941 88.4625487,67.9331361 88.0304595,67.9331361 C87.5983703,67.9331361 87.2309651,68.0167941 86.9299688,68.18411 C86.62811,68.351426 86.3831732,68.5756639 86.1960208,68.8559613 C86.0080059,69.1379836 85.8717383,69.4579539 85.7854929,69.817597 C85.70011,70.1763777 85.6578498,70.5463703 85.6578498,70.9301621 C85.6578498,71.2967048 85.70011,71.6537606 85.7854929,72.0004669 M84.0304,69.1138349 C84.226177,68.5549651 84.5073368,68.0676788 84.8738796,67.6519762 C85.2421472,67.2362736 85.692348,66.9102662 86.2262067,66.6739539 C86.7600654,66.4367792 87.3611955,66.318623 88.0304595,66.318623 C88.7074855,66.318623 89.3103405,66.4367792 89.8407494,66.6739539 C90.3702959,66.9102662 90.8187717,67.2362736 91.186177,67.6519762 C91.5535822,68.0676788 91.834742,68.5549651 92.030519,69.1138349 C92.2262959,69.6727048 92.3237532,70.2781472 92.3237532,70.9301621 C92.3237532,71.5666528 92.2262959,72.1600208 92.030519,72.7102662 C91.834742,73.2605115 91.5535822,73.7400357 91.186177,74.1471138 C90.8187717,74.5550543 90.3702959,74.8750245 89.8407494,75.107887 C89.3103405,75.339887 88.7074855,75.4563182 88.0304595,75.4563182 C87.3611955,75.4563182 86.7600654,75.339887 86.2262067,75.107887 C85.692348,74.8750245 85.2421472,74.5550543 84.8738796,74.1471138 C84.5073368,73.7400357 84.226177,73.2605115 84.0304,72.7102662 C83.834623,72.1600208 83.7371658,71.5666528 83.7371658,70.9301621 C83.7371658,70.2781472 83.834623,69.6727048 84.0304,69.1138349" id="Fill-18" fill="#000000" mask="url(#mask-4)"></path>
                    <path d="M170.542251,60.3902037 C170.542251,44.6530141 157.784839,31.894739 142.046787,31.894739 C126.309597,31.894739 113.552184,44.6530141 113.552184,60.3902037 C113.552184,76.1273933 126.309597,88.8856684 142.046787,88.8856684 C157.784839,88.8856684 170.542251,76.1273933 170.542251,60.3902037" id="Fill-19" fill="#FFEB01" mask="url(#mask-4)"></path>
                    <polygon id="Fill-20" fill="#FFFFFF" mask="url(#mask-4)" points="146.833576 57.5489368 159.913546 57.5489368 159.913546 44.4689665 146.833576 44.4689665"></polygon>
                    <polygon id="Fill-21" fill="#FFFFFF" mask="url(#mask-4)" points="146.834439 74.1951524 162.642349 74.1951524 162.642349 61.1151822 146.834439 61.1151822"></polygon>
                    <polygon id="Fill-22" fill="#949494" mask="url(#mask-4)" points="133.911435 84.0417844 150.183346 84.0417844 150.183346 78.2987063 133.911435 78.2987063"></polygon>
                    <path d="M134.499456,66.7802944 C134.916021,66.7802944 135.315337,66.7397591 135.696541,66.657826 C136.076883,66.5767554 136.411515,66.4404877 136.702162,66.2498855 C136.991946,66.0601457 137.223084,65.8014097 137.395575,65.4754022 C137.568065,65.1485323 137.654311,64.7319673 137.654311,64.2239822 C137.654311,63.2278483 137.373151,62.5154617 136.810831,62.0894097 C136.248512,61.6642201 135.505939,61.4503316 134.581389,61.4503316 L129.931902,61.4503316 L129.931902,66.7802944 L134.499456,66.7802944 Z M134.254519,58.5412758 C135.016065,58.5412758 135.642207,58.3601606 136.131218,57.9970677 C136.620229,57.6348372 136.865166,57.0457814 136.865166,56.2299004 C136.865166,55.7771123 136.783233,55.4053948 136.620229,55.114748 C136.457225,54.8249636 136.239887,54.5981383 135.968214,54.4351346 C135.696541,54.2721309 135.383471,54.1591494 135.029865,54.0953279 C134.677121,54.0315063 134.308854,54.000458 133.928512,54.000458 L129.931902,54.000458 L129.931902,58.5412758 L134.254519,58.5412758 Z M134.798727,50.6825993 C135.723277,50.6825993 136.565894,50.7645323 137.327441,50.9275361 C138.088987,51.0905398 138.741865,51.3579004 139.28521,51.7296178 C139.829419,52.1013353 140.251158,52.5955212 140.549567,53.211313 C140.848839,53.8279673 140.998906,54.5895138 140.998906,55.4959524 C140.998906,56.4748372 140.776393,57.2907182 140.332229,57.9427331 C139.888065,58.5956104 139.230876,59.1303316 138.361523,59.5468967 C139.556883,59.8918781 140.449523,60.4947331 141.039441,61.3554617 C141.628497,62.2161903 141.922593,63.2545844 141.922593,64.468919 C141.922593,65.4478037 141.732854,66.2955955 141.352512,67.011432 C140.971307,67.7281309 140.45901,68.3120119 139.815619,68.7648 C139.172229,69.2184506 138.437419,69.553945 137.612913,69.7712833 C136.788407,69.9886216 135.940616,70.0981532 135.071262,70.0981532 L125.661894,70.0981532 L125.661894,50.6825993 L134.798727,50.6825993 Z" id="Fill-23" fill="#000000" mask="url(#mask-4)"></path>
                    <path d="M215.976045,60.3902037 C215.976045,44.6530141 203.218632,31.894739 187.48058,31.894739 C171.74339,31.894739 158.985978,44.6530141 158.985978,60.3902037 C158.985978,76.1273933 171.74339,88.8856684 187.48058,88.8856684 C203.218632,88.8856684 215.976045,76.1273933 215.976045,60.3902037" id="Fill-24" fill="#6DB538" mask="url(#mask-4)"></path>
                    <polygon id="Fill-25" fill="#FFFFFF" mask="url(#mask-4)" points="192.267628 57.5489368 205.347599 57.5489368 205.347599 44.4689665 192.267628 44.4689665"></polygon>
                    <polygon id="Fill-26" fill="#FFFFFF" mask="url(#mask-4)" points="192.267628 74.1951524 208.075539 74.1951524 208.075539 61.1151822 192.267628 61.1151822"></polygon>
                    <polygon id="Fill-27" fill="#949494" mask="url(#mask-4)" points="179.344625 84.0417844 195.617398 84.0417844 195.617398 78.2987063 179.344625 78.2987063"></polygon>
                    <path d="M181.28756,55.8766394 C181.033999,55.4686989 180.716616,55.1107807 180.336274,54.8020223 C179.955932,54.4941264 179.524705,54.2543643 179.044318,54.0810112 C178.563932,53.9093829 178.060259,53.8231375 177.535025,53.8231375 C176.574251,53.8231375 175.75837,54.0094275 175.088244,54.381145 C174.417255,54.7528625 173.873047,55.2504981 173.456482,55.8766394 C173.039917,56.5019182 172.735471,57.2134424 172.544868,58.0112119 C172.355129,58.8089814 172.260259,59.633487 172.260259,60.4855911 C172.260259,61.3014721 172.355129,62.0940669 172.544868,62.8651004 C172.735471,63.6352714 173.039917,64.328684 173.456482,64.9453383 C173.873047,65.5611301 174.417255,66.055316 175.088244,66.4270335 C175.75837,66.7987509 176.574251,66.9841784 177.535025,66.9841784 C178.840779,66.9841784 179.860199,66.5857249 180.594147,65.7879554 C181.328095,64.9901859 181.777433,63.938855 181.940437,62.6331004 L186.073314,62.6331004 C185.964645,63.8482974 185.683486,64.9453383 185.230697,65.924223 C184.777047,66.9031078 184.179367,67.7362379 183.435932,68.4253383 C182.691634,69.1153011 181.822281,69.6396729 180.825285,70.0027658 C179.828288,70.3649963 178.73211,70.5461115 177.535025,70.5461115 C176.049017,70.5461115 174.711352,70.2873755 173.524616,69.7716283 C172.337017,69.2550186 171.335709,68.5434944 170.519828,67.6370558 C169.703946,66.7306171 169.078668,65.665487 168.643129,64.4416654 C168.208452,63.2178439 167.991114,61.8991524 167.991114,60.4855911 C167.991114,59.0358067 168.208452,57.6895167 168.643129,56.4475836 C169.078668,55.2056506 169.703946,54.1224089 170.519828,53.1978587 C171.335709,52.2733086 172.337017,51.5488476 173.524616,51.0227509 C174.711352,50.4966543 176.049017,50.2344684 177.535025,50.2344684 C178.604467,50.2344684 179.615262,50.3879851 180.567411,50.6967435 C181.51956,51.0046394 182.370801,51.4531152 183.122861,52.042171 C183.87492,52.6312268 184.496749,53.3608625 184.985761,54.2310781 C185.474772,55.1012937 185.78353,56.09829 185.910311,57.2229294 L181.777433,57.2229294 C181.704987,56.7330558 181.541121,56.2845799 181.28756,55.8766394" id="Fill-28" fill="#000000" mask="url(#mask-4)"></path>
                </g>
            </g>
        </g>
    </g>
</svg>