<?xml version="1.0" encoding="UTF-8"?>
<svg width="232px" height="184px" viewBox="0 0 232 184" version="1.1" xmlns="http://www.w3.org/2000/svg" xmlns:xlink="http://www.w3.org/1999/xlink">
    <title>atoms/img/ilustraciones/big/ecommerce</title>
    <defs>
        <polygon id="path-1" points="0 0.178564621 231.516551 0.178564621 231.516551 182.584838 0 182.584838"></polygon>
        <polygon id="path-3" points="0 183.243986 231.516736 183.243986 231.516736 0.837545126 0 0.837545126"></polygon>
    </defs>
    <g id="UI-KIT" stroke="none" stroke-width="1" fill="none" fill-rule="evenodd">
        <g id="Correos_web_UIkit_54_Illustrations" transform="translate(-400.000000, -3440.000000)">
            <g id="Group" transform="translate(400.000000, 3416.000000)">
                <g id="Group-51" transform="translate(0.000000, 24.000000)">
                    <g id="Group-3" transform="translate(0.000000, 0.659148)">
                        <mask id="mask-2" fill="white">
                            <use xlink:href="#path-1"></use>
                        </mask>
                        <g id="Clip-2"></g>
                        <path d="M0.61861083,95.9041097 C11.7688491,28.7899437 106.667737,2.83860794 156.913744,0.239705415 C157.970726,0.198665704 158.763882,0.178564621 159.294048,0.178564621 C209.106206,0.171026715 269.030885,79.4547235 200.967781,149.850391 C131.82173,221.366695 -10.5307899,163.018276 0.61861083,95.9041097" id="Fill-1" fill="#F1EFEF" mask="url(#mask-2)"></path>
                    </g>
                    <path d="M171.425889,61.206374 C171.414163,61.0723668 171.407463,60.937522 171.407463,60.8010022 C171.407463,58.0345906 173.635333,55.7908072 176.384994,55.7908072 C176.409282,55.7908072 176.434409,55.7941574 176.460373,55.7941574 C176.774452,53.3334498 178.86329,51.4313848 181.393513,51.4313848 C183.578669,51.4313848 185.432994,52.8485112 186.101355,54.8200924 C188.053672,54.9867639 189.600618,56.5780996 189.713687,58.5572188 C189.915535,58.53293 190.122409,58.5178542 190.329282,58.5178542 C192.246423,58.5178542 193.90895,59.6083379 194.739795,61.206374 L171.425889,61.206374 Z" id="Fill-4" fill="#FFFFFF"></path>
                    <path d="M24.4902383,75.1755379 C24.4625993,74.8505704 24.4441733,74.5222527 24.4441733,74.1905848 C24.4441733,67.4717978 29.858065,62.0218917 36.5366498,62.0218917 C36.595278,62.0218917 36.6580939,62.0285921 36.7209097,62.0285921 C37.4839134,56.0501949 42.5560866,51.4311336 48.7045054,51.4311336 C54.0128664,51.4311336 58.515509,54.8726065 60.139509,59.6633646 C64.8825271,60.0678989 68.6397545,63.9323321 68.9144693,68.7398412 C69.4035957,68.6803755 69.9069603,68.6451986 70.4094874,68.6451986 C75.0662383,68.6451986 79.1048809,71.2943538 81.1242022,75.1755379 L24.4902383,75.1755379 Z" id="Fill-6" fill="#FFFFFF"></path>
                    <path d="M224.206308,75.4348419 C224.224734,75.2154051 224.237297,74.9934556 224.237297,74.7689935 C224.237297,70.2211235 220.573874,66.5334123 216.054481,66.5334123 C216.014279,66.5334123 215.971564,66.5384375 215.929687,66.5384375 C215.412921,62.492257 211.979824,59.3665386 207.819737,59.3665386 C204.227506,59.3665386 201.179679,61.6957516 200.08082,64.9370513 C196.871347,65.2109285 194.32856,67.8265819 194.142625,71.0804448 C193.811795,71.0394051 193.471752,71.0167913 193.130871,71.0167913 C189.980026,71.0167913 187.247116,72.8083004 185.880243,75.4348419 L224.206308,75.4348419 Z" id="Fill-8" fill="#FFFFFF"></path>
                    <path d="M169.895945,52.7016895 L169.895945,70.6904838 C169.895108,71.0363899 169.615368,71.3169675 169.268624,71.3178051 L168.822212,71.3178051 L168.822212,159.163726 C168.822212,164.564217 164.445201,168.942065 159.04471,168.942065 L100.491093,168.942065 C95.0922773,168.942065 90.7152664,164.564217 90.716104,159.164563 L90.716104,165.026542 L90.716104,74.6034946 L90.3928116,74.6034946 C90.1490859,74.6043321 89.9505877,74.407509 89.9489126,74.1629458 L89.9489126,63.9247942 C89.9489126,63.680231 90.1482484,63.4817329 90.3928116,63.4817329 L90.716104,63.4817329 L90.716104,59.6256751 L90.3902989,59.6256751 C90.1340101,59.6248375 89.9271365,59.4162888 89.9279715,59.16 L89.9279715,49.0617184 C89.9279715,48.8071047 90.1348477,48.600231 90.3902989,48.5993935 L90.716104,48.5993935 L90.716104,43.3345848 L90.3844361,43.3345848 C90.1582989,43.3345848 89.974039,43.152 89.974039,42.9250253 L89.974039,42.9241877 L89.974039,37.4131408 C89.9732014,37.1861661 90.1574614,37.0010686 90.3844361,37.000231 L90.716104,37.000231 L90.716104,25.8424549 C90.716104,20.4428014 95.0922773,16.0674657 100.491093,16.0674657 L159.04471,16.0674657 C164.443526,16.0674657 168.820537,20.4428014 168.822212,25.8424549 L168.822212,52.0743682 L169.268624,52.0743682 C169.615368,52.0752058 169.895108,52.3557834 169.895945,52.7016895" id="Fill-10" fill="#203563"></path>
                    <path d="M122.689557,25.3457069 L131.3816,25.3457069 C131.993008,25.3457069 132.488835,25.8415336 132.488835,26.4529415 C132.488835,27.065187 131.993008,27.5610137 131.3816,27.5610137 L122.689557,27.5610137 C122.078149,27.5610137 121.582322,27.065187 121.582322,26.4529415 C121.582322,25.8415336 122.078149,25.3457069 122.689557,25.3457069" id="Fill-12" fill="#E6E8EB"></path>
                    <path d="M135.394614,25.1968751 C136.088101,25.1968751 136.650931,25.7597054 136.650931,26.4531928 C136.650931,27.1466801 136.088101,27.7095105 135.394614,27.7095105 C134.700289,27.7095105 134.138296,27.1466801 134.138296,26.4531928 C134.138296,25.7597054 134.700289,25.1968751 135.394614,25.1968751" id="Fill-14" fill="#E6E8EB"></path>
                    <path d="M163.344416,32.9138484 L163.344416,32.9171986 L163.344416,138.694123 C163.342741,141.525863 160.566279,143.820736 157.140719,143.820736 L101.090524,143.820736 C97.6699899,143.825762 94.8926903,141.536751 94.8868274,138.709199 L94.8868274,147.069574 L94.8868274,32.9171986" id="Fill-16" fill="#FFFFFF"></path>
                    <polygon id="Fill-18" fill="#C5BC8E" points="190.485317 168.794155 198.994775 168.794155 198.994775 124.871613 190.485317 123.421822"></polygon>
                    <mask id="mask-4" fill="white">
                        <use xlink:href="#path-3"></use>
                    </mask>
                    <g id="Clip-21"></g>
                    <polygon id="Fill-20" fill="#D9CA90" mask="url(#mask-4)" points="145.113906 168.793819 190.485401 168.793819 190.485401 123.421487 145.113906 123.421487"></polygon>
                    <polygon id="Fill-22" fill="#FFCD00" mask="url(#mask-4)" points="158.320318 145.229487 180.284101 145.229487 180.284101 123.422325 158.320318 123.422325"></polygon>
                    <path d="M137.737981,156.609632 C137.737981,160.671726 134.444754,163.964116 130.38266,163.964116 C126.320566,163.964116 123.027339,160.671726 123.027339,156.609632 C123.027339,152.5467 126.320566,149.25431 130.38266,149.25431 C134.444754,149.25431 137.737981,152.5467 137.737981,156.609632" id="Fill-23" fill="#182B48" mask="url(#mask-4)"></path>
                    <polygon id="Fill-24" fill="#128989" mask="url(#mask-4)" points="45.0616029 96.9901545 42.2399134 168.793736 103.066628 168.793736 98.321935 96.683613"></polygon>
                    <path d="M76.6883957,97.7925227 C76.6883957,97.7925227 79.5511249,68.5228332 70.9553993,68.5228332 L67.8991971,68.5228332 C67.8991971,68.5228332 72.0123812,67.9734036 72.0123812,97.7925227 C72.0123812,127.611642 76.6883957,97.7925227 76.6883957,97.7925227" id="Fill-25" fill="#128989" mask="url(#mask-4)"></path>
                    <polygon id="Fill-26" fill="#1ECAD3" mask="url(#mask-4)" points="38.5383827 96.9901545 35.7166931 168.793736 96.5434079 168.793736 91.7987148 96.683613"></polygon>
                    <path d="M60.7210166,97.7925227 C60.7210166,97.7925227 57.8582874,68.5228332 66.4531755,68.5228332 L69.5102152,68.5228332 C69.5102152,68.5228332 65.397031,67.9734036 65.397031,97.7925227 C65.397031,127.611642 60.7210166,97.7925227 60.7210166,97.7925227" id="Fill-27" fill="#1ECAD3" mask="url(#mask-4)"></path>
                    <path d="M94.781883,61.1948996 C94.781883,61.1948996 100.497291,58.6353617 100.497291,55.4786542 C100.497291,58.6353617 103.056829,61.1948996 106.213536,61.1948996 C109.369406,61.1948996 111.928944,58.6353617 111.928944,55.4786542 C111.928944,58.6353617 114.487645,61.1948996 117.644352,61.1948996 C120.80106,61.1948996 123.360598,58.6353617 123.360598,55.4786542 C123.360598,58.6353617 125.919298,61.1948996 129.076006,61.1948996 C132.232713,61.1948996 134.792251,58.6353617 134.792251,55.4786542 C134.792251,58.6353617 137.350952,61.1948996 140.507659,61.1948996 C143.664367,61.1948996 146.223067,58.6353617 146.223067,55.4786542 C146.223067,58.6353617 148.782605,61.1948996 151.939313,61.1948996 C155.09602,61.1948996 157.654721,58.6353617 157.654721,55.4786542 C157.654721,58.6353617 160.214258,61.1948996 163.370966,61.1948996 L163.370966,38.2143365 L94.781883,38.2143365" id="Fill-28" fill="#F1EFEF" mask="url(#mask-4)"></path>
                    <path d="M81.1239509,52.9438238 L81.1239509,52.9438238 C85.5227379,52.9438238 89.0898426,49.3775567 89.0898426,44.9787697 L89.0898426,43.5356794 L73.1588968,43.5356794 L73.1588968,44.9787697 C73.1588968,49.3775567 76.7251639,52.9438238 81.1239509,52.9438238" id="Fill-29" fill="#B38F00" mask="url(#mask-4)"></path>
                    <path d="M97.0548968,52.9438238 L97.0548968,52.9438238 C101.453684,52.9438238 105.020788,49.3775567 105.020788,44.9787697 L105.020788,43.5356794 L89.0898426,43.5356794 L89.0898426,44.9787697 C89.0898426,49.3775567 92.6561097,52.9438238 97.0548968,52.9438238" id="Fill-30" fill="#949494" mask="url(#mask-4)"></path>
                    <path d="M112.985843,52.9438238 L112.985843,52.9438238 C117.38463,52.9438238 120.951734,49.3775567 120.951734,44.9787697 L120.951734,43.5356794 L105.020788,43.5356794 L105.020788,44.9787697 C105.020788,49.3775567 108.587056,52.9438238 112.985843,52.9438238" id="Fill-31" fill="#B38F00" mask="url(#mask-4)"></path>
                    <path d="M128.916788,52.9438238 L128.916788,52.9438238 C133.315575,52.9438238 136.88268,49.3775567 136.88268,44.9787697 L136.88268,43.5356794 L120.951734,43.5356794 L120.951734,44.9787697 C120.951734,49.3775567 124.518001,52.9438238 128.916788,52.9438238" id="Fill-32" fill="#949494" mask="url(#mask-4)"></path>
                    <path d="M144.847734,52.9438238 L144.847734,52.9438238 C149.246521,52.9438238 152.813626,49.3775567 152.813626,44.9787697 L152.813626,43.5356794 L136.88268,43.5356794 L136.88268,44.9787697 C136.88268,49.3775567 140.448947,52.9438238 144.847734,52.9438238" id="Fill-33" fill="#B38F00" mask="url(#mask-4)"></path>
                    <path d="M160.77868,52.9438238 L160.77868,52.9438238 C165.177467,52.9438238 168.744572,49.3775567 168.744572,44.9787697 L168.744572,43.5356794 L152.813626,43.5356794 L152.813626,44.9787697 C152.813626,49.3775567 156.379893,52.9438238 160.77868,52.9438238" id="Fill-34" fill="#949494" mask="url(#mask-4)"></path>
                    <polygon id="Fill-35" fill="#FFCD00" mask="url(#mask-4)" points="167.371082 32.8966787 90.3395437 32.8966787 73.1589805 43.5494152 184.808771 43.5494152"></polygon>
                    <path d="M176.709626,52.9438238 L176.709626,52.9438238 C181.108413,52.9438238 184.675518,49.3775567 184.675518,44.9787697 L184.675518,43.5356794 L168.744572,43.5356794 L168.744572,44.9787697 C168.744572,49.3775567 172.310839,52.9438238 176.709626,52.9438238" id="Fill-36" fill="#B38F00" mask="url(#mask-4)"></path>
                    <polygon id="Fill-37" fill="#FFFFFF" mask="url(#mask-4)" points="89.0895913 43.5312404 100.832812 32.89693 111.676508 32.89693 105.020537 43.5312404"></polygon>
                    <polygon id="Fill-38" fill="#FFFFFF" mask="url(#mask-4)" points="120.951483 43.5312404 122.519368 32.89693 134.885721 32.89693 136.882429 43.5312404"></polygon>
                    <polygon id="Fill-39" fill="#FFFFFF" mask="url(#mask-4)" points="168.744321 43.5402022 157.000263 32.9058917 146.157404 32.9058917 152.813375 43.5402022"></polygon>
                    <path d="M154.395665,92.4262036 C153.924965,79.1268245 142.761326,68.7278643 129.461947,69.1994022 C116.163405,69.6701025 105.764445,80.832904 106.235145,94.132283 C106.706683,107.431662 117.869484,117.830622 131.168864,117.359922 C144.467405,116.888384 154.867203,105.725583 154.395665,92.4262036" id="Fill-40" fill="#F1EFEF" mask="url(#mask-4)"></path>
                    <path d="M153.245213,92.5047653 C153.245213,79.6174585 142.798513,69.1715957 129.912043,69.1715957 C117.024736,69.1715957 106.578036,79.6174585 106.578036,92.5047653 C106.578036,105.391235 117.024736,115.837097 129.912043,115.837097 C142.798513,115.837097 153.245213,105.391235 153.245213,92.5047653" id="Fill-41" fill="#FFFFFF" mask="url(#mask-4)"></path>
                    <path d="M135.281796,95.4025877 L123.735399,95.4025877 L122.362663,89.2256924 L137.34132,89.2256924 L135.281796,95.4025877 Z M140.73589,86.7792231 C140.445262,86.3772014 139.979587,86.136826 139.48376,86.136826 L121.676713,86.136826 L120.916222,82.7137791 C120.758764,82.0077285 120.13228,81.5043639 119.408641,81.5043639 L116.319775,81.5043639 C115.467154,81.5043639 114.776179,82.1961762 114.776179,83.0487971 C114.776179,83.9022556 115.467154,84.5932303 116.319775,84.5932303 L118.169912,84.5932303 L120.989926,97.2828765 C121.146547,97.9880895 121.773031,98.4914542 122.49667,98.4914542 L136.394894,98.4914542 C137.059905,98.4914542 137.649536,98.0659812 137.85976,97.4353097 L140.948627,88.169548 C141.105248,87.6996852 141.025681,87.1820823 140.73589,86.7792231 L140.73589,86.7792231 Z" id="Fill-42" fill="#203563" mask="url(#mask-4)"></path>
                    <path d="M123.267379,104.664664 C122.841906,104.664664 122.496838,104.318758 122.496838,103.894123 C122.496838,103.469487 122.841906,103.124419 123.267379,103.124419 C123.692014,103.124419 124.037083,103.469487 124.037083,103.894123 C124.037083,104.318758 123.692014,104.664664 123.267379,104.664664 M123.267379,100.03639 C121.139177,100.03639 119.408809,101.766758 119.408809,103.894123 C119.408809,106.021487 121.139177,107.753531 123.267379,107.753531 C125.395581,107.753531 127.125949,106.021487 127.125949,103.894123 C127.125949,101.766758 125.395581,100.03639 123.267379,100.03639" id="Fill-43" fill="#203563" mask="url(#mask-4)"></path>
                    <path d="M135.618741,104.667931 C135.193268,104.667931 134.846524,104.322025 134.846524,103.895714 C134.846524,103.469404 135.193268,103.124335 135.618741,103.124335 C136.045051,103.124335 136.390957,103.469404 136.390957,103.895714 C136.390957,104.322025 136.045051,104.667931 135.618741,104.667931 M135.618741,100.036306 C133.490539,100.036306 131.758495,101.767512 131.758495,103.895714 C131.758495,106.024754 133.490539,107.756797 135.618741,107.756797 C137.747781,107.756797 139.478986,106.024754 139.478986,103.895714 C139.478986,101.767512 137.747781,100.036306 135.618741,100.036306" id="Fill-44" fill="#203563" mask="url(#mask-4)"></path>
                    <path d="M144.991625,83.1183134 C144.577877,85.9132014 141.976462,87.843743 139.181574,87.4291581 C136.386686,87.0154108 134.456144,84.4148332 134.870729,81.6191076 C135.284477,78.8242195 137.885892,76.893678 140.68078,77.3082628 C143.47483,77.7220101 145.405372,80.3234253 144.991625,83.1183134" id="Fill-45" fill="#E5322A" mask="url(#mask-4)"></path>
                    <path d="M141.80175,84.0654931 L141.80175,85.2087422 L138.016046,85.2087422 L138.016046,83.9750383 L138.897144,83.1843957 C139.967526,82.2790094 140.419801,81.7446556 140.419801,81.1684245 C140.419801,80.6332332 140.016104,80.443948 139.56383,80.443948 C139.151757,80.443948 138.740523,80.5586917 138.181043,80.8468072 L137.933967,79.7856375 C138.361952,79.497522 138.979223,79.2261574 139.736364,79.2261574 C140.954155,79.2261574 141.719671,79.9506339 141.719671,81.03693 C141.719671,82.0319336 141.135902,82.6500419 140.172725,83.5386773 L139.620783,84.0654931 L141.80175,84.0654931 Z" id="Fill-46" fill="#FFFFFF" mask="url(#mask-4)"></path>
                    <polygon id="Fill-47" fill="#B38F00" mask="url(#mask-4)" points="93.4045401 120.70156 91.5150383 168.794238 132.254908 168.794238 129.077262 120.496361"></polygon>
                    <path d="M111.237132,121.238929 C111.237132,121.238929 113.15511,101.635347 107.397825,101.635347 L105.350865,101.635347 C105.350865,101.635347 108.105551,101.266827 108.105551,121.238929 C108.105551,141.21103 111.237132,121.238929 111.237132,121.238929" id="Fill-48" fill="#B38F00" mask="url(#mask-4)"></path>
                    <polygon id="Fill-49" fill="#FFCD00" mask="url(#mask-4)" points="83.1728375 120.70156 81.2833357 168.794238 127.886022 168.794238 124.708375 120.496361"></polygon>
                    <path d="M100.542853,121.238929 C100.542853,121.238929 98.6248751,101.635347 104.38216,101.635347 L106.429121,101.635347 C106.429121,101.635347 103.674435,101.266827 103.674435,121.238929 C103.674435,141.21103 100.542853,121.238929 100.542853,121.238929" id="Fill-50" fill="#FFCD00" mask="url(#mask-4)"></path>
                </g>
            </g>
        </g>
    </g>
</svg>