<?xml version="1.0" encoding="UTF-8"?>
<svg width="40px" height="40px" viewBox="0 0 40 40" version="1.1" xmlns="http://www.w3.org/2000/svg" xmlns:xlink="http://www.w3.org/1999/xlink">
    <title>24011516-319E-4D01-8DCB-418E248CD415</title>
    <g id="UI-KIT" stroke="none" stroke-width="1" fill="none" fill-rule="evenodd">
        <g id="Correos_web_UIkit_53_Icons" transform="translate(-184.000000, -2920.000000)">
            <g id="atoms/ico/tools/encuentra_cp" transform="translate(184.000000, 2920.000000)">
                <path d="M40,16 L40,20 L8,20 L8,16 L40,16 Z M40,8 L40,12 L8,12 L8,8 L40,8 Z M40,0 L40,4 L8,4 L8,0 L40,0 Z" id="Combined-Shape" fill="#FFCD00"></path>
                <g id="atoms/ico/24px/ico_locate_now" transform="translate(0.000000, 8.000000)" fill="#002E6D">
                    <path d="M16.0001333,1.33333333 C16.7361333,1.33333333 17.3334667,1.92933333 17.3334667,2.66666667 L17.3334667,2.66666667 L17.3334667,5.42533333 C22.1481333,6.02933333 25.9694667,9.852 26.5748,14.6666667 L26.5748,14.6666667 L29.3334667,14.6666667 C30.0694667,14.6666667 30.6668,15.2626667 30.6668,16 C30.6668,16.736 30.0694667,17.3333333 29.3334667,17.3333333 L29.3334667,17.3333333 L26.5748,17.3333333 C25.9694667,22.148 22.1481333,25.9693333 17.3334667,26.5746667 L17.3334667,26.5746667 L17.3334667,29.3333333 C17.3334667,30.0693333 16.7361333,30.6666667 16.0001333,30.6666667 C15.2641333,30.6666667 14.6668,30.0693333 14.6668,29.3333333 L14.6668,29.3333333 L14.6668,26.5746667 C9.8508,25.9693333 6.0308,22.148 5.42546667,17.3333333 L5.42546667,17.3333333 L2.6668,17.3333333 C1.9308,17.3333333 1.33346667,16.736 1.33346667,16 C1.33346667,15.2626667 1.9308,14.6666667 2.6668,14.6666667 L2.6668,14.6666667 L5.42546667,14.6666667 C6.0308,9.852 9.8508,6.02933333 14.6668,5.42533333 L14.6668,5.42533333 L14.6668,2.66666667 C14.6668,1.92933333 15.2641333,1.33333333 16.0001333,1.33333333 Z M16.0001333,8 C11.5881333,8 8.00013333,11.588 8.00013333,16 C8.00013333,20.412 11.5881333,24 16.0001333,24 C20.4121333,24 24.0001333,20.412 24.0001333,16 C24.0001333,11.588 20.4121333,8 16.0001333,8 Z M16.0001333,12 C18.2054667,12 20.0001333,13.7946667 20.0001333,16 C20.0001333,18.2053333 18.2054667,20 16.0001333,20 C13.7948,20 12.0001333,18.2053333 12.0001333,16 C12.0001333,13.7946667 13.7948,12 16.0001333,12 Z M16.0001333,14.6666667 C15.2654667,14.6666667 14.6668,15.264 14.6668,16 C14.6668,16.736 15.2654667,17.3333333 16.0001333,17.3333333 C16.7348,17.3333333 17.3334667,16.736 17.3334667,16 C17.3334667,15.264 16.7348,14.6666667 16.0001333,14.6666667 Z" id="ico_locate_now"></path>
                </g>
            </g>
        </g>
    </g>
</svg>