<?xml version="1.0" encoding="UTF-8"?>
<svg width="43px" height="40px" viewBox="0 0 43 40" version="1.1" xmlns="http://www.w3.org/2000/svg" xmlns:xlink="http://www.w3.org/1999/xlink">
    <title>gnomo</title>
    <g id="Symbols" stroke="none" stroke-width="1" fill="none" fill-rule="evenodd">
        <g id="atoms/ico/tools/gnomo" transform="translate(3.000000, 0.000000)">
            <g id="gnomo" transform="translate(-3.000000, 0.000000)">
                <path d="M43,16 L43,20 L11,20 L11,16 L43,16 Z M43,8 L43,12 L11,12 L11,8 L43,8 Z M43,0 L43,4 L11,4 L11,0 L43,0 Z" id="Combined-Shape" fill="#FFCD00"></path>
                <g id="atoms/ico/24px/ico_position_map" transform="translate(0.000000, 8.000000)" fill="#002E6D">
                    <path d="M16.0013333,2.66746667 C20.6346667,2.66746667 23.9733333,3.16213333 25.9293333,4.13946667 C27.8506667,5.1008 28,6.31546667 28,6.66613333 L28.0013333,17.3341333 C28.0013333,24.8381333 16.9386667,29.0701333 16.468,29.2474667 C16.316,29.3034667 16.1586667,29.3328 16,29.3328 C15.8413333,29.3328 15.6826667,29.3034667 15.5306667,29.2474667 C15.0613333,29.0701333 4.00133333,24.8381333 4.00133333,17.3341333 L4,6.66613333 C4,5.1728 5.56,2.66746667 16.0013333,2.66746667 Z M16.0013333,5.33413333 C8.68533333,5.33413333 6.97466667,6.6088 6.66666667,6.92346667 L6.668,17.3341333 C6.668,21.7821333 13.012,25.3301333 16,26.5648 C18.988,25.3301333 25.3346667,21.7821333 25.3346667,17.3341333 L25.3333333,6.92213333 C25.0253333,6.6088 23.316,5.33413333 16.0013333,5.33413333 Z M22.2766667,11.3877333 C22.7966667,11.9077333 22.7966667,12.7530667 22.2766667,13.2730667 L15.9726667,19.5770667 C15.7233333,19.8277333 15.3833333,19.9677333 15.03,19.9677333 C14.6753333,19.9677333 14.3366667,19.8277333 14.0873333,19.5770667 L11.386,16.8757333 C10.8646667,16.3544 10.8646667,15.5104 11.386,14.9904 C11.906,14.4690667 12.75,14.4690667 13.2713333,14.9904 L15.03,16.7490667 L20.3913333,11.3877333 C20.9113333,10.8677333 21.7553333,10.8677333 22.2766667,11.3877333 Z" id="ico_security"></path>
                </g>
            </g>
        </g>
    </g>
</svg>