<?xml version="1.0" encoding="UTF-8"?>
<svg width="192px" height="56px" viewBox="0 0 192 56" version="1.1" xmlns="http://www.w3.org/2000/svg" xmlns:xlink="http://www.w3.org/1999/xlink">
    <title>molecules/badges/desktop/huawei</title>
    <defs>
        <polygon id="path-1" points="0.249242748 0.00945801527 12.9247786 0.00945801527 12.9247786 17.3129771 0.249242748 17.3129771"></polygon>
        <polygon id="path-3" points="0 39.7768855 167.77974 39.7768855 167.77974 0 0 0"></polygon>
    </defs>
    <g id="molecules/badges/desktop/huawei" stroke="none" stroke-width="1" fill="none" fill-rule="evenodd">
        <rect id="Rectangle" fill="#002E6D" x="0" y="0" width="192" height="56" rx="8"></rect>
        <g id="Group-52" transform="translate(11.000000, 8.000000)">
            <path d="M53.2182,28.0154107 L57.6541695,28.0154107 L56.0851008,23.6922962 C55.8593908,23.097884 55.6375282,22.4018382 55.4191924,21.6041588 C55.2386885,22.2662198 55.0242,22.9587389 54.7757267,23.6810748 L53.2182,28.0154107 Z M58.5682305,30.5437466 L52.3153603,30.5437466 L50.8367038,34.6863573 L47.529284,34.6863573 L53.872887,18.3307237 L57.101116,18.3307237 L63.5800168,34.6863573 L60.0696504,34.6863573 L58.5682305,30.5437466 Z" id="Fill-1" fill="#FFFFFF"></path>
            <path d="M72.3080015,31.4806031 C72.8386122,30.7659618 73.1037573,29.7159618 73.1037573,28.3315649 C73.1037573,27.0824656 72.8908718,26.1793053 72.4660626,25.6224046 C72.0409328,25.0655038 71.4744137,24.7872137 70.7671466,24.7872137 C70.2855893,24.7872137 69.8396198,24.9019924 69.4295588,25.1315496 C69.0194977,25.3611069 68.6113603,25.6788321 68.2051466,26.0850458 L68.2051466,32.1689542 C68.4382305,32.2821298 68.7222916,32.374145 69.0573298,32.4456412 C69.3920473,32.5171374 69.7248412,32.5530458 70.0563527,32.5530458 C71.0268412,32.5530458 71.7773908,32.1955649 72.3080015,31.4806031 L72.3080015,31.4806031 Z M64.9541542,25.4871069 C64.9541542,24.5615038 64.9240168,23.5567099 64.8640626,22.4733664 L67.9566733,22.4733664 C68.0618336,22.9174122 68.1333298,23.443855 68.1711618,24.0533359 C68.6527191,23.4967557 69.1983985,23.0546336 69.8078794,22.7272901 C70.4173603,22.3999466 71.0944901,22.2364351 71.8395893,22.2364351 C72.6597115,22.2364351 73.4141084,22.4413053 74.1027802,22.8513664 C74.7911313,23.2617481 75.3480321,23.9068168 75.7731618,24.7872137 C76.1982916,25.6676107 76.4108565,26.7814122 76.4108565,28.1282977 C76.4108565,29.5806641 76.1569328,30.818542 75.6490855,31.8416107 C75.1412382,32.8653206 74.4394214,33.6367099 73.5439557,34.1557786 C72.6484901,34.6748473 71.6251008,34.934542 70.4737878,34.934542 C69.7738947,34.934542 69.017574,34.8104656 68.2051466,34.5619924 L68.2051466,39.5397939 L64.9541542,39.7767252 L64.9541542,25.4871069 Z" id="Fill-3" fill="#FFFFFF"></path>
            <path d="M85.8497313,31.4806031 C86.3800214,30.7659618 86.645487,29.7159618 86.645487,28.3315649 C86.645487,27.0824656 86.4326015,26.1793053 86.0077924,25.6224046 C85.5826626,25.0655038 85.0161435,24.7872137 84.3088763,24.7872137 C83.8273191,24.7872137 83.3816702,24.9019924 82.9712885,25.1315496 C82.5612275,25.3611069 82.1530901,25.6788321 81.7465557,26.0850458 L81.7465557,32.1689542 C81.9799603,32.2821298 82.2640214,32.374145 82.5987389,32.4456412 C82.9334565,32.5171374 83.266571,32.5530458 83.5980824,32.5530458 C84.568571,32.5530458 85.3194412,32.1955649 85.8497313,31.4806031 L85.8497313,31.4806031 Z M78.495884,25.4871069 C78.495884,24.5615038 78.4657466,23.5567099 78.4054718,22.4733664 L81.4984031,22.4733664 C81.603884,22.9174122 81.6750595,23.443855 81.7128916,24.0533359 C82.1944489,23.4967557 82.7401282,23.0546336 83.3496092,22.7272901 C83.9590901,22.3999466 84.6362198,22.2364351 85.3813191,22.2364351 C86.2014412,22.2364351 86.9558382,22.4413053 87.6445099,22.8513664 C88.3328611,23.2617481 88.8897618,23.9068168 89.3152122,24.7872137 C89.7400214,25.6676107 89.9525863,26.7814122 89.9525863,28.1282977 C89.9525863,29.5806641 89.6986626,30.818542 89.1908153,31.8416107 C88.6829679,32.8653206 87.9808305,33.6367099 87.0856855,34.1557786 C86.1902198,34.6748473 85.1668305,34.934542 84.0155176,34.934542 C83.315945,34.934542 82.5593038,34.8104656 81.7465557,34.5619924 L81.7465557,39.5397939 L78.495884,39.7767252 L78.495884,25.4871069 Z" id="Fill-5" fill="#FFFFFF"></path>
            <path d="M95.4382992,33.9243298 C94.2154901,33.266116 93.270971,32.315826 92.6050626,31.0741008 C91.9391542,29.8326962 91.6063603,28.357887 91.6063603,26.6496733 C91.6063603,24.7910931 91.987887,23.2220244 92.7519023,21.9427878 C93.5155969,20.6635511 94.5466809,19.705887 95.8448336,19.070116 C97.1426656,18.434345 98.5969557,18.1162992 100.207063,18.1162992 C102.005368,18.1162992 103.710055,18.4926962 105.320162,19.2451695 L104.575383,21.7058565 C103.123017,21.0133374 101.723551,20.6670779 100.376345,20.6670779 C99.2853069,20.6670779 98.3353374,20.8969557 97.5264366,21.3557496 C96.7172153,21.8148641 96.0910626,22.4900702 95.6470168,23.3820092 C95.202971,24.2736275 94.9811084,25.3553679 94.9811084,26.6269099 C94.9811084,27.7407115 95.1519939,28.728513 95.4947267,29.5899939 C95.8368183,30.4514748 96.3732,31.1308489 97.1029099,31.6271542 C97.8329405,32.1241008 98.7623908,32.3722534 99.8912611,32.3722534 C100.884192,32.3722534 101.825185,32.2180397 102.712956,31.9096122 L102.712956,28.8958718 L99.1233985,28.8958718 L99.1233985,26.4576275 L105.851093,26.4576275 L105.851093,33.5575511 C104.903047,33.9939023 103.907551,34.3289405 102.865246,34.5620244 C101.82294,34.7951084 100.782879,34.9121313 99.7444214,34.9121313 C98.0964824,34.9121313 96.6607878,34.5828641 95.4382992,33.9243298" id="Fill-7" fill="#FFFFFF"></path>
            <path d="M114.117334,32.1804 C114.636403,31.939942 115.069227,31.6350412 115.415487,31.2660183 L115.415487,29.2458504 C114.722968,29.1705069 114.154846,29.1329954 113.7108,29.1329954 C112.687411,29.1329954 111.980144,29.2984305 111.588678,29.6293008 C111.197533,29.9608122 111.00196,30.4045374 111.00196,30.9614382 C111.00196,31.4958962 111.144953,31.8928122 111.430937,32.1521863 C111.716922,32.4118809 112.108067,32.5417282 112.604693,32.5417282 C113.093945,32.5417282 113.597945,32.4211786 114.117334,32.1804 L114.117334,32.1804 Z M115.66364,34.6862931 C115.550785,34.1973618 115.483136,33.6779725 115.460373,33.1287664 C115.03909,33.6250718 114.497258,34.0466748 113.835197,34.3926137 C113.172815,34.7388733 112.420342,34.9120031 111.577456,34.9120031 C110.870189,34.9120031 110.2248,34.7725374 109.64193,34.4942473 C109.058739,34.2162779 108.59225,33.7946748 108.242144,33.2300794 C107.892357,32.6658046 107.717304,31.9736061 107.717304,31.1531634 C107.717304,28.5648733 109.575884,27.2705679 113.293365,27.2705679 C114.015701,27.2705679 114.722968,27.3193008 115.415487,27.417087 L115.415487,27.2138198 C115.415487,26.2584 115.196831,25.5812702 114.7608,25.1821099 C114.324449,24.7835908 113.699579,24.584171 112.886831,24.584171 C112.292418,24.584171 111.651197,24.6707359 110.962525,24.843545 C110.273853,25.0166748 109.665976,25.2237893 109.139533,25.4645679 L108.66535,23.1391786 C109.184739,22.9060947 109.863472,22.6970565 110.702831,22.5127053 C111.541869,22.3283542 112.427716,22.2363389 113.361014,22.2363389 C115.046464,22.2363389 116.348144,22.633255 117.266373,23.427087 C118.184602,24.2209191 118.643395,25.5812702 118.643395,27.5074992 L118.643395,32.3948885 C118.643395,32.8992092 118.673533,33.6632244 118.733808,34.6862931 L115.66364,34.6862931 Z" id="Fill-9" fill="#FFFFFF"></path>
            <path d="M121.995765,34.1162473 C121.472528,33.5856366 121.211231,32.7523695 121.211231,31.6161252 L121.211231,17.3713924 L124.450681,17.1456824 L124.450681,31.029087 C124.450681,31.5183389 124.542696,31.8626748 124.727368,32.061774 C124.911719,32.2611939 125.180711,32.3609038 125.534345,32.3609038 C125.76775,32.3609038 126.034818,32.312171 126.335551,32.2143847 L126.708101,34.4942473 C126.407368,34.6224916 126.032895,34.7238046 125.585002,34.7991481 C125.137429,34.874171 124.710376,34.9120031 124.303841,34.9120031 C123.288147,34.9120031 122.518681,34.646858 121.995765,34.1162473" id="Fill-11" fill="#FFFFFF"></path>
            <path d="M128.73109,34.1162473 C128.207853,33.5856366 127.946556,32.7523695 127.946556,31.6161252 L127.946556,17.3713924 L131.186006,17.1456824 L131.186006,31.029087 C131.186006,31.5183389 131.278021,31.8626748 131.462693,32.061774 C131.647044,32.2611939 131.916037,32.3609038 132.26967,32.3609038 C132.503075,32.3609038 132.770144,32.312171 133.070876,32.2143847 L133.443426,34.4942473 C133.142693,34.6224916 132.76822,34.7238046 132.320327,34.7991481 C131.872754,34.874171 131.445701,34.9120031 131.039166,34.9120031 C130.023472,34.9120031 129.254006,34.646858 128.73109,34.1162473" id="Fill-13" fill="#FFFFFF"></path>
            <path d="M142.021429,27.1462672 C141.976223,26.2732443 141.756284,25.6166336 141.360971,25.1764351 C140.966299,24.7362366 140.437612,24.5162977 139.775231,24.5162977 C139.128238,24.5162977 138.594101,24.7346336 138.172498,25.1709847 C137.751215,25.6073359 137.472605,26.2658702 137.337307,27.1462672 L142.021429,27.1462672 Z M145.159246,29.1215496 L137.280879,29.1215496 C137.378666,30.2953053 137.719154,31.1458855 138.302345,31.6726489 C138.885536,32.1994122 139.685139,32.4626336 140.700834,32.4626336 C141.272803,32.4626336 141.861444,32.3949847 142.467398,32.2593664 C143.073032,32.1240687 143.658147,31.9397176 144.222421,31.706313 L144.922315,33.896084 C143.492711,34.5735344 141.9012,34.9120992 140.14778,34.9120992 C138.123444,34.9120992 136.590605,34.3757176 135.548299,33.3035954 C134.505994,32.2311527 133.985002,30.7169084 133.985002,28.7602214 C133.985002,27.4059618 134.229307,26.2376565 134.718559,25.255626 C135.20749,24.2735954 135.890391,23.5249695 136.767261,23.0094275 C137.643811,22.4942061 138.654055,22.2364351 139.797673,22.2364351 C140.994513,22.2364351 141.993215,22.5128015 142.794742,23.065855 C143.595948,23.6189084 144.190681,24.362084 144.578299,25.2950611 C144.965597,26.2283588 145.159246,27.2629695 145.159246,28.3992137 L145.159246,29.1215496 Z" id="Fill-15" fill="#FFFFFF"></path>
            <path d="M147.237925,25.5208351 C147.237925,24.8437053 147.207467,23.8276901 147.147513,22.4734305 L150.217681,22.4734305 C150.262887,22.8043008 150.305849,23.2069878 150.347528,23.681171 C150.388887,24.1550336 150.417101,24.5388046 150.432169,24.832484 C150.755666,24.2906519 151.071788,23.8373084 151.380215,23.4721328 C151.688963,23.1072779 152.048047,22.8100718 152.458108,22.5805145 C152.86849,22.3509573 153.340429,22.2361786 153.874887,22.2361786 C154.281421,22.2361786 154.649803,22.2852321 154.980994,22.3830183 L154.57478,25.1598275 C154.296169,25.084484 153.995116,25.0466519 153.67162,25.0466519 C153.032002,25.0466519 152.473177,25.1992626 151.995467,25.5038427 C151.517757,25.8087435 151.011834,26.3185145 150.477376,27.0334763 L150.477376,34.6861328 L147.237925,34.6861328 L147.237925,25.5208351 Z" id="Fill-17" fill="#FFFFFF"></path>
            <g id="Group-21" transform="translate(154.854962, 22.463908)">
                <mask id="mask-2" fill="white">
                    <use xlink:href="#path-1"></use>
                </mask>
                <g id="Clip-20"></g>
                <path d="M1.3159145,17.1999618 C0.868341985,17.1249389 0.512784733,17.0422214 0.249242748,16.9518092 L0.825059542,14.6267405 C0.9828,14.671626 1.21428092,14.7206794 1.51918168,14.7735802 C1.82376183,14.8258397 2.10397557,14.8524504 2.36014351,14.8524504 C2.96930382,14.8524504 3.49799084,14.6735496 3.94588397,14.3160687 C4.39345649,13.9585878 4.74901374,13.4414427 5.01255573,12.764313 L5.15907481,12.4029847 L0.700662595,0.00945801527 L4.19980763,0.00945801527 L6.25396031,6.58999237 C6.57040305,7.65858779 6.78072366,8.5351374 6.88620458,9.21996183 C7.10454046,8.25684733 7.33409771,7.38767176 7.57455573,6.61243511 L9.69699847,0.00945801527 L12.9249069,0.00945801527 L8.55690687,12.256145 C8.13530382,13.4600382 7.66528855,14.4289237 7.14589924,15.1628015 C6.62650992,15.8966794 6.01157863,16.4381908 5.30046412,16.7882977 C4.58934962,17.138084 3.74069313,17.3131374 2.75481527,17.3131374 C2.24344122,17.3131374 1.76348702,17.2749847 1.3159145,17.1999618" id="Fill-19" fill="#FFFFFF" mask="url(#mask-2)"></path>
            </g>
            <polygon id="Fill-22" fill="#FFFFFF" points="47.8470412 2.51057405 52.9367359 2.51057405 52.7822015 3.50382595 49.0066901 3.50382595 49.0066901 6.34796336 52.5786137 6.34796336 52.5786137 7.30402443 49.0066901 7.30402443 49.0066901 10.4379939 52.9736061 10.4379939 52.8440794 11.443429 47.8470412 11.443429"></polygon>
            <polygon id="Fill-24" fill="#FFFFFF" points="56.539374 6.8845374 53.7632061 2.5104458 55.1020763 2.5104458 57.180916 5.97143817 59.3463206 2.5104458 60.6354962 2.5104458 57.8779237 6.82907176 60.863771 11.4436214 59.5005344 11.4436214 57.2056031 7.69279695 54.8244275 11.4436214 53.5349313 11.4436214"></polygon>
            <path d="M65.6728672,6.59775115 C66.0572794,6.2543771 66.2496458,5.77602595 66.2496458,5.16333893 C66.2496458,4.55898779 66.0614473,4.12071298 65.685371,3.84947634 C65.308974,3.57791908 64.762974,3.44230076 64.047371,3.44230076 L62.9861496,3.44230076 L62.9861496,7.00781221 C63.3728061,7.07802595 63.7100885,7.11265191 63.9979969,7.11265191 C64.7299511,7.11265191 65.2881344,6.94112519 65.6728672,6.59775115 L65.6728672,6.59775115 Z M61.8265008,2.51060611 L64.072058,2.51060611 C65.1579664,2.51060611 65.9864244,2.73375115 66.5580733,3.18004122 C67.1297221,3.6263313 67.4157069,4.27300305 67.4157069,5.1203771 C67.4157069,5.7083771 67.2810504,6.22359847 67.0114168,6.6654 C66.7421038,7.10752214 66.364745,7.44897252 65.8796611,7.68975115 C65.3942565,7.93020916 64.8389588,8.05043817 64.2137679,8.05043817 C63.8065924,8.05043817 63.3974931,8.0033084 62.9861496,7.90872824 L62.9861496,11.4434611 L61.8265008,11.4434611 L61.8265008,2.51060611 Z" id="Fill-26" fill="#FFFFFF"></path>
            <polygon id="Fill-28" fill="#FFFFFF" points="68.7546733 2.51057405 69.9143221 2.51057405 69.9143221 10.4072153 73.7885817 10.4072153 73.659055 11.443429 68.7546733 11.443429"></polygon>
            <path d="M79.8994855,10.1357542 C80.3739893,9.82315878 80.7298672,9.39354046 80.9664779,8.84657863 C81.2030885,8.29929618 81.3217145,7.67410534 81.3217145,6.97100611 C81.3217145,6.28425802 81.217516,5.66932672 81.0097603,5.12621221 C80.801684,4.58341832 80.4679282,4.15155573 80.0072107,3.83062443 C79.5468137,3.51001374 78.9546458,3.3497084 78.2307069,3.3497084 C77.5436382,3.3497084 76.9607679,3.51321985 76.4817756,3.84024275 C76.0024626,4.16694504 75.6436992,4.60425802 75.4051649,5.15121985 C75.1666305,5.69818168 75.0473634,6.30060916 75.0473634,6.95850229 C75.0473634,7.64973893 75.1605389,8.26947939 75.3865695,8.8186855 C75.6126,9.36757099 75.9591802,9.80263969 76.4259893,10.1232504 C76.8931191,10.4441817 77.4698977,10.604487 78.1566458,10.604487 C78.8430733,10.604487 79.4243405,10.4483496 79.8994855,10.1357542 M75.793745,11.005571 C75.156371,10.6314183 74.6690427,10.1059374 74.3317603,9.42944885 C73.9944779,8.75296031 73.8258366,7.96618168 73.8258366,7.0697542 C73.8258366,6.1278 74.0056992,5.30447176 74.365745,4.59880763 C74.7254702,3.89346412 75.2438977,3.34874656 75.9203863,2.96401374 C76.5968748,2.57960153 77.3958366,2.38723511 78.3169511,2.38723511 C79.1970275,2.38723511 79.955913,2.57350992 80.593287,2.94573893 C81.2306611,3.31764733 81.7160656,3.84120458 82.0491802,4.51576947 C82.3822947,5.19033435 82.5490122,5.9716626 82.5490122,6.8597542 C82.5490122,7.81805954 82.367226,8.65100611 82.0030122,9.35827328 C81.6391191,10.0658611 81.1187679,10.6105786 80.4422794,10.9930672 C79.7654702,11.3758763 78.9726,11.5669603 78.0639893,11.5669603 C77.1880809,11.5669603 76.4311191,11.3797237 75.793745,11.005571" id="Fill-30" fill="#FFFFFF"></path>
            <path d="M86.3308076,6.86607023 C86.7543344,6.86607023 87.128487,6.78495573 87.4535863,6.62240611 C87.7786855,6.45985649 88.0306855,6.22965802 88.2092656,5.93149008 C88.3881664,5.63332214 88.4776168,5.29090992 88.4776168,4.90425344 C88.4776168,4.39448244 88.3150672,4.02321527 87.9902885,3.79077252 C87.6655099,3.55832977 87.1926092,3.4422687 86.5715863,3.4422687 L85.2820901,3.4422687 L85.2820901,6.86607023 L86.3308076,6.86607023 Z M84.1221206,2.51057405 L86.7072046,2.51057405 C87.6530061,2.51057405 88.3830366,2.70903206 88.8972962,3.10594809 C89.4112351,3.50286412 89.6683649,4.07547481 89.6683649,4.82410076 C89.6683649,5.30116947 89.5699374,5.72084885 89.3721206,6.08249771 C89.174945,6.44446718 88.9290366,6.74071145 88.6350366,6.97090992 C88.3410366,7.2011084 88.033571,7.3780855 87.7129603,7.50152061 L90.5074031,11.443429 L89.125571,11.443429 L86.6148687,7.79744427 L85.2820901,7.79744427 L85.2820901,11.443429 L84.1221206,11.443429 L84.1221206,2.51057405 Z" id="Fill-32" fill="#FFFFFF"></path>
            <path d="M93.4252489,7.89632061 L96.4973405,7.89632061 L95.3931573,5.0339084 C95.2902412,4.79120611 95.1671267,4.45616794 95.0228519,4.02815267 L94.9491115,3.82456489 C94.8340122,4.19487023 94.6961496,4.59178626 94.5358443,5.01531298 L93.4252489,7.89632061 Z M96.8737374,8.84629008 L93.0674473,8.84629008 L92.0806076,11.4435573 L90.8587603,11.4435573 L94.4310046,2.51070229 L95.4858137,2.51070229 L99.1439817,11.4435573 L97.8916763,11.4435573 L96.8737374,8.84629008 Z" id="Fill-34" fill="#FFFFFF"></path>
            <path d="M105.134753,7.89632061 L108.206844,7.89632061 L107.102661,5.0339084 C106.999745,4.79120611 106.876631,4.45616794 106.732356,4.02815267 L106.658615,3.82456489 C106.543516,4.19487023 106.405653,4.59178626 106.245348,5.01531298 L105.134753,7.89632061 Z M108.583241,8.84629008 L104.776951,8.84629008 L103.790111,11.4435573 L102.568264,11.4435573 L106.140508,2.51070229 L107.195318,2.51070229 L110.853485,11.4435573 L109.60118,11.4435573 L108.583241,8.84629008 Z" id="Fill-36" fill="#FFFFFF"></path>
            <path d="M117.127901,10.1418458 C117.600802,9.82508244 117.955397,9.38905191 118.192008,8.83407481 C118.428618,8.2787771 118.546924,7.64557099 118.546924,6.93381527 C118.546924,6.26758626 118.442084,5.66515878 118.232084,5.12621221 C118.022405,4.58758626 117.68929,4.15700611 117.23274,3.83383053 C116.776191,3.51097557 116.196527,3.3497084 115.493107,3.3497084 C114.789687,3.3497084 114.196237,3.51001374 113.713397,3.83062443 C113.229916,4.15155573 112.869229,4.58854809 112.630695,5.14192214 C112.39216,5.69497557 112.272573,6.31696031 112.272573,7.00787634 C112.272573,7.67827328 112.387031,8.28583053 112.615305,8.8308687 C112.84358,9.37590687 113.191122,9.80969313 113.657931,10.1325481 C114.12442,10.4557237 114.703443,10.6166702 115.394359,10.6166702 C116.07726,10.6166702 116.654679,10.4586092 117.127901,10.1418458 M118.096466,12.8994183 C117.586695,12.6688992 117.115718,12.4316473 116.683534,12.1870214 C116.251992,11.9420748 115.916634,11.721174 115.67842,11.5236779 C115.534145,11.5525328 115.379931,11.5669603 115.215458,11.5669603 C114.364237,11.5669603 113.624588,11.3787618 112.997473,11.0023649 C112.370359,10.6262885 111.889122,10.0976015 111.554084,9.41694504 C111.218725,8.73628855 111.051366,7.94790687 111.051366,7.05115878 C111.051366,6.11754046 111.233153,5.29805954 111.597366,4.59271603 C111.96126,3.88737252 112.479366,3.34137252 113.152008,2.95471603 C113.824328,2.56838015 114.61271,2.3747313 115.517794,2.3747313 C116.414221,2.3747313 117.182405,2.56196794 117.822023,2.93612061 C118.461321,3.31059389 118.946725,3.83607481 119.277916,4.51256336 C119.608786,5.18905191 119.774542,5.97550992 119.774542,6.87225802 C119.774542,7.60421221 119.664252,8.26627328 119.444634,8.85876183 C119.224374,9.45092977 118.906649,9.95172366 118.491458,10.3608229 C118.075947,10.7699221 117.580282,11.0754641 117.004466,11.2771282 C118.028817,11.7785634 119.108313,12.1549603 120.243275,12.4059985 L119.55845,13.4608076 C119.093885,13.3168534 118.606237,13.1296168 118.096466,12.8994183" id="Fill-38" fill="#FFFFFF"></path>
            <path d="M122.902356,11.1937053 C122.375592,10.9407435 121.970661,10.5746061 121.686921,10.0956137 C121.40318,9.61662137 121.26115,9.04176641 121.26115,8.37136947 L121.26115,2.51060611 L122.408615,2.51060611 L122.408615,8.14918626 C122.408615,8.94301832 122.607073,9.54640763 123.003989,9.95999542 C123.400905,10.3732626 123.987944,10.5797359 124.765424,10.5797359 C125.563104,10.5797359 126.148218,10.3681328 126.520447,9.94460611 C126.892356,9.52075878 127.078631,8.90999542 127.078631,8.11231603 L127.078631,2.51060611 L128.226096,2.51060611 L128.226096,8.35886565 C128.226096,9.03759847 128.08631,9.6172626 127.806737,10.0984992 C127.527165,10.5797359 127.128325,10.9461939 126.609898,11.1969115 C126.09147,11.447629 125.47686,11.5733084 124.765424,11.5733084 C124.049821,11.5733084 123.428798,11.4466672 122.902356,11.1937053" id="Fill-40" fill="#FFFFFF"></path>
            <mask id="mask-4" fill="white">
                <use xlink:href="#path-3"></use>
            </mask>
            <g id="Clip-43"></g>
            <path d="M130.324076,11.4435573 L131.484046,11.4435573 L131.484046,2.51070229 L130.324076,2.51070229 L130.324076,11.4435573 Z M129.898626,1.84447328 L131.508412,0 L132.890565,0.15421374 L130.620321,1.9800916 L129.898626,1.84447328 Z" id="Fill-42" fill="#FFFFFF" mask="url(#mask-4)"></path>
            <path d="M28.7952641,38.5296779 L7.34961527,38.5296779 C3.30735573,38.5296779 -6.41221374e-05,35.222258 -6.41221374e-05,31.1799985 L-6.41221374e-05,9.73434962 C-6.41221374e-05,5.69209008 3.30735573,2.38467023 7.34961527,2.38467023 L28.7952641,2.38467023 C32.8375237,2.38467023 36.1449435,5.69209008 36.1449435,9.73434962 L36.1449435,31.1799985 C36.1449435,35.222258 32.8375237,38.5296779 28.7952641,38.5296779" id="Fill-44" fill="#D10931" mask="url(#mask-4)"></path>
            <path d="M18.0725038,14.4346947 C14.6176031,14.4346947 11.8071298,11.6239008 11.8071298,8.16932061 L12.7689618,8.16932061 C12.7689618,11.0936107 15.1478931,13.4728626 18.0725038,13.4728626 C20.9971145,13.4728626 23.3760458,11.0936107 23.3760458,8.16932061 L24.3378779,8.16932061 C24.3378779,11.6239008 21.5274046,14.4346947 18.0725038,14.4346947" id="Fill-45" fill="#FFFFFF" mask="url(#mask-4)"></path>
            <polygon id="Fill-46" fill="#FFFFFF" mask="url(#mask-4)" points="3.62716489 20.3645817 4.6207374 20.3645817 4.6207374 22.3449939 6.83359237 22.3449939 6.83359237 20.3645817 7.82716489 20.3645817 7.82716489 25.3090397 6.83359237 25.3090397 6.83359237 23.1372229 4.6207374 23.1372229 4.6207374 25.3090397 3.62716489 25.3090397"></polygon>
            <path d="M10.2155221,25.1690611 C9.90485038,25.0257481 9.66567481,24.8186336 9.49863664,24.5477176 C9.33127786,24.2764809 9.24759847,23.9533053 9.24759847,23.5778702 L9.24759847,20.3647099 L10.2309115,20.3647099 L10.2309115,23.4377634 C10.2309115,23.804542 10.3219649,24.0837939 10.5040718,24.2761603 C10.6861786,24.4685267 10.9561328,24.5647099 11.3132931,24.5647099 C12.0189573,24.5647099 12.3719496,24.1822214 12.3719496,23.4175649 L12.3719496,20.3647099 L13.3587893,20.3647099 L13.3587893,23.5711374 C13.3587893,23.9513817 13.2763924,24.2774427 13.1112779,24.5493206 C12.9461634,24.8215191 12.7105145,25.0286336 12.4043313,25.1706641 C12.0981481,25.3130153 11.7345756,25.3841908 11.3132931,25.3841908 C10.8923313,25.3841908 10.5261939,25.312374 10.2155221,25.1690611" id="Fill-47" fill="#FFFFFF" mask="url(#mask-4)"></path>
            <path d="M15.8548397,23.2909557 L17.196916,23.2909557 L16.7220916,21.9831847 C16.6538015,21.8033221 16.5867939,21.5926809 16.5207481,21.3515817 C16.4659237,21.5516427 16.4011603,21.7613221 16.3261374,21.979658 L15.8548397,23.2909557 Z M17.4732824,24.0559328 L15.5816794,24.0559328 L15.1341069,25.3092 L14.1338015,25.3092 L16.0529771,20.3612153 L17.0295573,20.3612153 L18.9894504,25.3092 L17.9272672,25.3092 L17.4732824,24.0559328 Z" id="Fill-48" fill="#FFFFFF" mask="url(#mask-4)"></path>
            <path d="M19.1940321,20.3645817 L20.2459557,20.3645817 L21.0378641,23.3420931 C21.1109634,23.6085206 21.1689939,23.8816809 21.2119557,24.1618947 C21.2872992,23.8294214 21.3578336,23.5517725 21.4238794,23.3286275 L22.2674061,20.3645817 L23.3020168,20.3645817 L24.1933145,23.348826 C24.2911008,23.679055 24.3561847,23.949971 24.3879252,24.1618947 C24.4289634,23.9432382 24.4905206,23.6835435 24.5722763,23.3831313 L25.3404595,20.3645817 L26.3343527,20.3645817 L24.8694824,25.3090397 L23.8416046,25.3090397 L23.0083374,22.508826 C22.9512687,22.3244748 22.9047802,22.1539099 22.8682305,21.9968107 C22.8320015,21.8397115 22.7967344,21.6643374 22.762429,21.4706885 C22.7262,21.6601695 22.6896504,21.8307344 22.6534214,21.9830244 C22.6168718,22.1356351 22.571345,22.3065206 22.5165206,22.4953603 L21.7040931,25.3090397 L20.6829481,25.3090397 L19.1940321,20.3645817 Z" id="Fill-49" fill="#FFFFFF" mask="url(#mask-4)"></path>
            <polygon id="Fill-50" fill="#FFFFFF" mask="url(#mask-4)" points="27.3003847 20.3645817 30.2746901 20.3645817 30.1926137 21.1670702 28.2939573 21.1670702 28.2939573 22.3927649 30.0800794 22.3927649 30.0800794 23.1407496 28.2939573 23.1407496 28.2939573 24.4998183 30.2984153 24.4998183 30.2265985 25.3090397 27.3003847 25.3090397"></polygon>
            <polygon id="Fill-51" fill="#FFFFFF" mask="url(#mask-4)" points="31.5240458 25.3090076 32.5179389 25.3090076 32.5179389 20.3645496 31.5240458 20.3645496"></polygon>
        </g>
    </g>
</svg>