<?xml version="1.0" encoding="UTF-8"?>
<svg width="40px" height="41px" viewBox="0 0 40 41" version="1.1" xmlns="http://www.w3.org/2000/svg" xmlns:xlink="http://www.w3.org/1999/xlink">
    <title>5EF4E2EE-A3FC-4F83-ADE8-428A9BC42410</title>
    <g id="UI-KIT" stroke="none" stroke-width="1" fill="none" fill-rule="evenodd">
        <g id="Correos_web_UIkit_53_Icons" transform="translate(-64.000000, -2920.000000)">
            <g id="atoms/ico/tools/localizador" transform="translate(64.000000, 2920.000000)">
                <path d="M40,16 L40,20 L8,20 L8,16 L40,16 Z M40,8 L40,12 L8,12 L8,8 L40,8 Z M40,0 L40,4 L8,4 L8,0 L40,0 Z" id="Combined-Shape" fill="#FFCD00"></path>
                <g id="atoms/ico/24px/ico_location" transform="translate(0.000000, 9.000000)" fill="#002E6D">
                    <path d="M17.3093333,24.5648 L14.9146667,18.9781333 L16.9426667,16.9488 C17.464,16.4274667 17.464,15.5848 16.9426667,15.0634667 C16.4213333,14.5421333 15.5786667,14.5421333 15.0573333,15.0634667 L13.1573333,16.9634667 L7.51733333,14.6661333 L24.224,7.78613333 L17.3093333,24.5648 Z M27.6186667,4.39013333 C27.2386667,4.01013333 26.6653333,3.89546667 26.1693333,4.1008 L3.492,13.4394667 C2.992,13.6461333 2.66533333,14.1341333 2.6666626,14.6754667 C2.668,15.2168 2.996,15.7034667 3.49733333,15.9074667 L12.22,19.4608 L16.108,28.5314667 C16.3173333,29.0221333 16.8,29.3394667 17.3333333,29.3394667 L17.3426667,29.3394667 C17.88,29.3354667 18.3613333,29.0101333 18.5666667,28.5141333 L27.9093333,5.84213333 C28.1146667,5.34346667 28,4.77146667 27.6186667,4.39013333 L27.6186667,4.39013333 Z" id="ico_location"></path>
                </g>
            </g>
        </g>
    </g>
</svg>