<?xml version="1.0" encoding="UTF-8"?>
<svg width="40px" height="25px" viewBox="0 0 40 25" version="1.1" xmlns="http://www.w3.org/2000/svg" xmlns:xlink="http://www.w3.org/1999/xlink">
    <title>logos/footer/maestro</title>
    <g id="UI-KIT" stroke="none" stroke-width="1" fill="none" fill-rule="evenodd">
        <g id="Correos_web_UIkit_06_Menu&amp;Footer" transform="translate(-744.000000, -11028.000000)">
            <g id="molecules/footer/desktop" transform="translate(-240.000000, 10640.000000)">
                <g id="Group-10" transform="translate(984.000000, 388.000000)">
                    <path d="M39.9927731,12.0101398 C39.9927731,18.6433416 34.6372599,24.0199 28.0292782,24.0199 C21.42262,24.0199 16.0663505,18.6433416 16.0663505,12.0101398 C16.0663505,5.37674821 21.42262,1.42108547e-14 28.0292782,1.42108547e-14 C34.6372599,1.42108547e-14 39.9927731,5.37674821 39.9927731,12.0101398" id="Fill-356" fill="#CC0000"></path>
                    <path d="M18.7877847,19.6369268 C18.4574612,19.2347478 18.1532308,18.8097932 17.8766062,18.3649099 L22.1165451,18.3649099 C22.3710473,17.9572268 22.60078,17.532462 22.8059322,17.0930828 L17.1875972,17.0930828 C16.9960588,16.6816038 16.8258864,16.2572186 16.6810509,15.8216353 L23.3115332,15.8216353 C23.710871,14.6240187 23.9266117,13.3428916 23.9266117,12.0101398 C23.9266117,11.137455 23.8339623,10.286407 23.6581175,9.46686518 L16.3354119,9.46686518 C16.4280613,9.03355952 16.544913,8.60955389 16.6825635,8.19503809 L23.3107769,8.19503809 C23.165374,7.75945487 22.9961471,7.33525944 22.8047977,6.92378039 L17.1887317,6.92378039 C17.393884,6.48440123 17.6241839,6.0603956 17.8779298,5.6517635 L22.1152215,5.6517635 C21.838786,5.20801902 21.5337993,4.78382359 21.2040431,4.38107518 L18.7892973,4.38107518 C19.1608403,3.92841026 19.5645269,3.50345565 19.9967647,3.11000728 C17.8733918,1.17730838 15.0551485,1.42108547e-14 11.9638731,1.42108547e-14 C5.35626951,1.42108547e-14 1.42108547e-14,5.37674821 1.42108547e-14,12.0101398 C1.42108547e-14,18.6433416 5.35626951,24.0199 11.9638731,24.0199 C15.0553376,24.0199 17.87377,22.8425916 19.9967647,20.9106519 C20.4295697,20.5164443 20.8338236,20.0905407 21.2053666,19.6369268 L18.7877847,19.6369268" id="Fill-357" fill="#0066CC"></path>
                    <path d="M19.8262142,15.2556618 C19.3149408,15.3915562 18.8204956,15.457985 18.2978773,15.4568462 C16.6303773,15.4553279 15.761931,14.6929149 15.761931,13.2348973 C15.761931,11.5314727 16.8674841,10.2786253 18.3682153,10.2786253 C19.5957252,10.2786253 20.3792744,10.9810626 20.3792744,12.0816931 C20.3792744,12.4468618 20.3263319,12.8027304 20.1964336,13.3056914 L17.2310857,13.3056914 C17.1255789,14.0178083 17.6434701,14.3304034 18.525152,14.3304034 C19.0532535,14.3304034 19.5306815,14.2351255 20.0597285,14.0216043 L19.8262142,15.2556618 L19.8262142,15.2556618 Z M19.0288622,12.301098 C19.0288622,12.1936731 19.1937403,11.4291724 18.3355043,11.41266 C17.8616689,11.41266 17.5218914,11.7288612 17.3844299,12.301098 L19.0288622,12.301098 L19.0288622,12.301098 Z" id="Fill-359" fill="#002E6D"></path>
                    <path d="M20.8307984,11.9670559 C20.8307984,12.5962317 21.1836224,13.0310558 21.9858905,13.354659 C22.5990782,13.6067089 22.6955092,13.6797806 22.6955092,13.9050691 C22.6955092,14.2172846 22.4247461,14.3603912 21.8230923,14.3565953 C21.3713792,14.3533687 20.9589949,14.2981379 20.472491,14.1628129 L20.2571284,15.3105131 C20.6897444,15.4112951 21.2961252,15.4443197 21.8336808,15.4568462 C23.4350027,15.4568462 24.174307,14.9305402 24.174307,13.7928994 C24.174307,13.1088724 23.8659169,12.7066933 23.1054355,12.4068147 C22.4697472,12.1517281 22.3952496,12.0968768 22.3952496,11.8658944 C22.3952496,11.5948648 22.6471047,11.4578316 23.1381464,11.4578316 C23.4359481,11.4578316 23.8434163,11.4851624 24.2302748,11.5322319 L24.44715,10.3782685 C24.0531065,10.3234173 23.4554234,10.2793845 23.1092171,10.2793845 C21.4127878,10.2793845 20.8256932,11.045973 20.8307984,11.9670559" id="Fill-360" fill="#002E6D"></path>
                    <path d="M14.9490744,15.3746643 L13.7051145,15.3746643 L13.7348001,14.8515848 C13.3555048,15.2642027 12.8500929,15.4564666 12.1644874,15.4564666 C11.3529543,15.4564666 10.797058,14.8994136 10.797058,14.0982821 C10.797058,12.880547 11.7634479,12.1781098 13.4250864,12.1781098 C13.595826,12.1781098 13.8130794,12.1910159 14.0361943,12.2162589 C14.0823299,12.0532236 14.0948092,11.9829989 14.0948092,11.8945536 C14.0948092,11.5612708 13.833311,11.4384724 13.1340917,11.4384724 C12.4447045,11.4411295 11.9795668,11.5438095 11.5478962,11.6601548 L11.7604226,10.543012 C12.506912,10.3524562 12.9954957,10.2786253 13.5485559,10.2786253 C14.835248,10.2786253 15.514803,10.7853822 15.514803,11.7370225 C15.5255805,11.9911601 15.4376582,12.5009538 15.3932243,12.7241546 C15.3429289,13.048517 14.9863233,14.9305402 14.9490744,15.3746643 L14.9490744,15.3746643 Z M13.8571351,13.1529052 C13.6996311,13.1373419 13.630995,13.1325969 13.5230301,13.1325969 C12.6746263,13.1325969 12.2444684,13.3861652 12.2444684,13.8866589 C12.2444684,14.2009621 12.4543476,14.3974016 12.7816458,14.3974016 C13.391241,14.3974016 13.8314202,13.8855201 13.8571351,13.1529052 L13.8571351,13.1529052 Z" id="Fill-361" fill="#002E6D"></path>
                    <path d="M26.7953395,15.2957089 C26.387304,15.4078787 26.0690817,15.4568462 25.7251445,15.4568462 C24.9631504,15.4568462 24.5469845,15.0658652 24.5469845,14.3696913 C24.5229713,14.1783763 24.7092155,13.2946832 24.7515695,13.048517 C24.7935453,12.8015916 25.453625,9.20190911 25.453625,9.20190911 L26.9341245,9.20190911 L26.7102533,10.3930726 L27.4696002,10.3930726 L27.2633135,11.6083404 L26.5005632,11.6083404 C26.5005632,11.6083404 26.0821282,13.7183093 26.0821282,13.8796364 C26.0821282,14.1352924 26.2364178,14.2465133 26.5909436,14.2465133 C26.7603596,14.2465133 26.8913923,14.2305703 26.9925504,14.2002029 L26.7953395,15.2957089" id="Fill-362" fill="#002E6D"></path>
                    <path d="M33.4106954,10.2786253 C32.325563,10.2786253 31.4777265,10.7274943 30.985172,11.4760521 L31.4126828,10.3653623 C30.6249739,10.0751633 30.1171039,10.4894893 29.6582058,11.0782384 C29.6582058,11.0782384 29.5812501,11.1759837 29.5044834,11.2653779 L29.5044834,10.3925033 L28.1143644,10.3925033 C27.9260403,11.9330824 27.5930697,13.4954881 27.332706,15.0394835 L27.2697422,15.3752337 L28.7651791,15.3752337 C28.9071785,14.5917533 29.023652,13.9559346 29.1397474,13.4487981 C29.4574024,12.0575889 29.9921218,11.6324445 30.7947681,11.8207228 C30.6094693,12.2202446 30.5079331,12.6833484 30.5079331,13.1956094 C30.5079331,14.4393466 31.180303,15.4568462 32.8508283,15.4568462 C34.536291,15.4568462 35.756805,14.5530348 35.756805,12.4920334 C35.756805,11.2490554 34.9433811,10.2786253 33.4106954,10.2786253 L33.4106954,10.2786253 Z M32.9754323,14.2480316 C32.4473308,14.2561929 32.1270286,13.8113096 32.1270286,13.1455031 C32.1270286,12.3567084 32.5942462,11.4652337 33.3450845,11.4652337 C33.9508981,11.4652337 34.1583193,11.9475069 34.1583193,12.4612863 C34.1583193,13.5833639 33.7001775,14.2480316 32.9754323,14.2480316 L32.9754323,14.2480316 Z" id="Fill-363" fill="#002E6D"></path>
                    <polyline id="Fill-364" fill="#002E6D" points="10.1002967 15.3752337 8.6109104 15.3752337 9.49599574 10.6940901 7.45827629 15.3752337 6.10067904 15.3752337 5.85260556 10.7216106 4.96468401 15.3752337 3.61351548 15.3752337 4.76425878 9.28617881 7.0916494 9.28617881 7.28545681 12.6806912 8.75990575 9.28617881 11.2741078 9.28617881 10.1002967 15.3752337"></polyline>
                    <path d="M20.1998371,14.8804339 C19.6889418,15.0165181 19.1943075,15.0829469 18.6718784,15.0818081 C17.0043783,15.0802898 16.1359321,14.317687 16.1359321,12.8598592 C16.1359321,11.1564346 17.2412961,9.90358719 18.7418381,9.90358719 C19.9695371,9.90358719 20.7532754,10.6060244 20.7532754,11.7064652 C20.7532754,12.0716339 20.7001438,12.4267433 20.5704346,12.9306533 L17.6052758,12.9306533 C17.4995799,13.642011 18.017093,13.9551755 18.8987748,13.9551755 C19.4268764,13.9551755 19.9046826,13.8598976 20.4335404,13.6459968 L20.1998371,14.8804339 L20.1998371,14.8804339 Z M19.402485,11.9260599 C19.402485,11.8184452 19.5673631,11.0541342 18.7095054,11.0374321 C18.2356699,11.0374321 17.8958924,11.3536333 17.7580528,11.9260599 L19.402485,11.9260599 L19.402485,11.9260599 Z" id="Fill-366" fill="#FFFFFF"></path>
                    <path d="M21.2047994,11.5916383 C21.2047994,12.2210038 21.5574343,12.6554483 22.3595134,12.9794311 C22.9730793,13.2316708 23.0693212,13.3045527 23.0693212,13.5292719 C23.0693212,13.8420567 22.798369,13.9851633 22.1972824,13.9815572 C21.7450021,13.9781408 21.3326177,13.92291 20.846492,13.787585 L20.6307513,14.9349056 C21.0635563,15.0360672 21.6703153,15.0690918 22.2073036,15.0818081 C23.8086255,15.0818081 24.5483081,14.5553123 24.5483081,13.4172919 C24.5483081,12.7336445 24.2397288,12.3310858 23.4792475,12.0315868 C22.8435592,11.7766899 22.7688724,11.7210795 22.7688724,11.4908562 C22.7688724,11.2198267 23.0211057,11.0822241 23.5119584,11.0822241 C23.80976,11.0822241 24.2170392,11.1101242 24.6040868,11.1571938 L24.820962,10.0032304 C24.4269184,9.94762 23.8292353,9.90415658 23.4834073,9.90415658 C21.7865998,9.90415658 21.1995051,10.6703655 21.2047994,11.5916383" id="Fill-367" fill="#FFFFFF"></path>
                    <path d="M15.3230754,14.9994364 L14.0787373,14.9994364 L14.1088011,14.4763569 C13.7293168,14.8885952 13.224283,15.0806694 12.5384884,15.0806694 C11.7271444,15.0806694 11.1706808,14.5238061 11.1706808,13.7226746 C11.1706808,12.5053191 12.1372598,11.8028819 13.7988984,11.8028819 C13.969638,11.8028819 14.1867023,11.8159778 14.4101953,11.8402718 C14.4563309,11.6776161 14.4686211,11.6079608 14.4686211,11.5193257 C14.4686211,11.1852837 14.207312,11.0630547 13.5082818,11.0630547 C12.8187056,11.0659016 12.3535678,11.1685816 11.9220863,11.2851167 L12.1340455,10.1677841 C12.8807239,9.97722827 13.3691186,9.90358719 13.9225569,9.90358719 C15.209249,9.90358719 15.8886149,10.4097748 15.8886149,11.3617946 C15.8997707,11.616122 15.811281,12.1249667 15.7674144,12.3489267 C15.7165518,12.6732891 15.3601352,14.5553123 15.3230754,14.9994364 L15.3230754,14.9994364 Z M14.2309471,12.7778671 C14.0736322,12.7615446 14.0048069,12.757369 13.8966529,12.757369 C13.0486273,12.757369 12.6182804,13.0105577 12.6182804,13.5106718 C12.6182804,13.8255444 12.8285378,14.0223635 13.1552687,14.0223635 C13.765242,14.0223635 14.2054212,13.5099126 14.2309471,12.7778671 L14.2309471,12.7778671 Z" id="Fill-368" fill="#FFFFFF"></path>
                    <path d="M27.1691514,14.920481 C26.7609269,15.0328406 26.4428936,15.0818081 26.0987673,15.0818081 C25.3367733,15.0818081 24.9209855,14.6906373 24.9209855,13.9944634 C24.8967832,13.8031484 25.0830274,12.9194553 25.1251923,12.6732891 C25.1675464,12.4263637 25.827626,8.82668121 25.827626,8.82668121 L27.3079365,8.82668121 L27.0842544,10.0174652 L27.8436012,10.0174652 L27.6371254,11.2331125 L26.8745642,11.2331125 C26.8745642,11.2331125 26.4557511,13.3430814 26.4557511,13.5036493 C26.4557511,13.7602543 26.6102298,13.870716 26.9647555,13.870716 C27.1341716,13.870716 27.2650152,13.8555322 27.3667405,13.8247852 L27.1691514,14.920481" id="Fill-369" fill="#FFFFFF"></path>
                    <path d="M34.5325094,12.0852992 C34.5325094,13.2083258 34.0738003,13.8729935 33.3490552,13.8729935 C32.8209536,13.8805854 32.5008405,13.4362715 32.5008405,12.770465 C32.5008405,11.9816703 32.9680582,11.0900058 33.7187074,11.0900058 C34.32471,11.0900058 34.5325094,11.572279 34.5325094,12.0852992 L34.5325094,12.0852992 Z M36.1306169,12.1168055 C36.1306169,10.8740173 35.317004,9.90358719 33.7846964,9.90358719 C32.0218999,9.90358719 30.8817451,11.0829833 30.8817451,12.8205713 C30.8817451,14.0641187 31.554115,15.0818081 33.2248294,15.0818081 C34.910292,15.0818081 36.1306169,14.1779967 36.1306169,12.1168055 L36.1306169,12.1168055 Z" id="Fill-370" fill="#FFFFFF"></path>
                    <path d="M28.4879872,10.0168958 C28.2998522,11.5578545 27.9666926,13.1200704 27.7065179,14.663876 L27.6437432,15.0001956 L29.138991,15.0001956 C29.6778702,12.018301 29.8588201,11.1689612 30.9881973,11.4678909 L31.5314253,10.0571326 C30.7435273,9.76693363 30.2366027,10.1814494 29.7777046,10.7705781 C29.8191132,10.5054322 29.8970143,10.2493966 29.8782954,10.0168958 L28.4879872,10.0168958" id="Fill-371" fill="#FFFFFF"></path>
                    <polyline id="Fill-372" fill="#FFFFFF" points="10.4741086 15.0001956 8.98510051 15.0001956 9.86999677 10.319052 7.83208824 15.0001956 6.47449098 15.0001956 6.22622842 10.3463827 5.33830687 15.0001956 3.98732743 15.0001956 5.13788165 8.91095091 7.46546135 8.91095091 7.58836361 12.6806912 9.22674525 8.91095091 11.6479197 8.91095091 10.4741086 15.0001956"></polyline>
                </g>
            </g>
        </g>
    </g>
</svg>