<?xml version="1.0" encoding="UTF-8"?>
<svg width="37px" height="12px" viewBox="0 0 37 12" version="1.1" xmlns="http://www.w3.org/2000/svg" xmlns:xlink="http://www.w3.org/1999/xlink">
    <title>logos/footer/visa</title>
    <g id="UI-KIT" stroke="none" stroke-width="1" fill="none" fill-rule="evenodd">
        <g id="Correos_web_UIkit_06_Menu&amp;Footer" transform="translate(-602.000000, -11034.000000)">
            <g id="molecules/footer/desktop" transform="translate(-240.000000, 10640.000000)">
                <g id="Group-8" transform="translate(842.000000, 394.000000)">
                    <polyline id="Fill-3" fill="#002E6D" points="12.8342876 11.6437183 14.67913 0.199267606 17.6280442 0.199267606 15.7833705 11.6437183 12.8342876 11.6437183"></polyline>
                    <path d="M26.4800157,0.480169014 C25.8969456,0.250478873 24.9799217,-8.8817842e-15 23.8375631,-8.8817842e-15 C20.9220442,-8.8817842e-15 18.8697456,1.55307042 18.8527106,3.77695775 C18.8341576,5.42197183 20.3172166,6.33938028 21.4352876,6.88614085 C22.5843926,7.44659155 22.9704636,7.80523944 22.9659097,8.3063662 C22.9579825,9.07284507 22.0487171,9.42405634 21.2008452,9.42405634 C20.0202,9.42405634 19.3929401,9.25115493 18.4231244,8.82388732 L18.0438,8.64169014 L17.6314175,11.2034366 C18.319059,11.5221972 19.5938184,11.7988732 20.9168157,11.8134085 C24.0153346,11.8134085 26.0286719,10.2790986 26.0522848,7.90428169 C26.0629106,6.59983099 25.2771069,5.61109859 23.5752912,4.79476056 C22.5447567,4.26405634 21.9122682,3.91250704 21.9195207,3.37538028 C21.9201954,2.89977465 22.453847,2.39053521 23.6088553,2.39053521 C24.5734424,2.37498592 25.2717097,2.59774648 25.8158184,2.83030986 L26.0806203,2.96112676 L26.4800157,0.480169014" id="Fill-4" fill="#002E6D"></path>
                    <path d="M30.4066728,7.58619718 C30.6510664,6.92839437 31.5814147,4.38726761 31.5814147,4.38726761 C31.5642111,4.41752113 31.824459,3.72439437 31.9733889,3.29543662 L32.172412,4.28247887 C32.172412,4.28247887 32.7382783,7.01408451 32.8548249,7.58619718 L30.4066728,7.58619718 L30.4066728,7.58619718 Z M34.0447465,0.210929577 L31.7657641,0.210929577 C31.0588949,0.210929577 30.5297972,0.413408451 30.2201309,1.15960563 L25.8407806,11.6477746 L28.9381189,11.6477746 C28.9381189,11.6477746 29.443435,10.2368451 29.5581263,9.92721127 C29.8959594,9.92721127 32.9055926,9.93312676 33.3351788,9.93312676 C33.4235585,10.332507 33.6942636,11.6477746 33.6942636,11.6477746 L36.4313364,11.6477746 L34.0447465,0.210929577 L34.0447465,0.210929577 Z" id="Fill-5" fill="#002E6D"></path>
                    <path d="M10.36033,0.208901408 L7.47398986,8.01126761 L7.16482949,6.42523944 C6.62696129,4.59785915 4.95263779,2.6171831 3.07979724,1.62473239 L5.72039447,11.6337465 L8.84134562,11.6318873 L13.485329,0.208901408 L10.36033,0.208901408" id="Fill-6" fill="#002E6D"></path>
                    <path d="M4.7946,0.201126761 L0.0391299539,0.201126761 L1.15463195e-14,0.438253521 C3.7003106,1.38625352 6.14863134,3.67453521 7.16482949,6.42523944 L6.13142765,1.16670423 C5.95315023,0.441464789 5.43501567,0.226478873 4.7946,0.201126761" id="Fill-7" fill="#EC982D"></path>
                </g>
            </g>
        </g>
    </g>
</svg>