<?xml version="1.0" encoding="UTF-8"?>
<svg width="56px" height="32px" viewBox="0 0 56 32" version="1.1" xmlns="http://www.w3.org/2000/svg" xmlns:xlink="http://www.w3.org/1999/xlink">
    <title>3A411305-53D0-4F8F-8F46-60E760C5B6C5</title>
    <defs>
        <polygon id="path-1" points="0 0.111094118 26.6451294 0.111094118 26.6451294 19.7646235 0 19.7646235"></polygon>
        <polygon id="path-3" points="0.732447059 0.111094118 4.44623529 0.111094118 4.44623529 3.82438824 0.732447059 3.82438824"></polygon>
    </defs>
    <g id="UI-KIT" stroke="none" stroke-width="1" fill="none" fill-rule="evenodd">
        <g id="Correos_web_UIkit_06_Menu&amp;Footer" transform="translate(-1072.000000, -11024.000000)">
            <g id="molecules/footer/desktop" transform="translate(-240.000000, 10640.000000)">
                <g id="footer" transform="translate(0.000000, 80.000000)">
                    <g id="Certificados" transform="translate(1312.000000, 264.000000)">
                        <g id="logos/footer/maestro-copy-4" transform="translate(0.000000, 40.000000)">
                            <g id="Group-11" transform="translate(7.000000, 6.000000)">
                                <g id="Group-3">
                                    <mask id="mask-2" fill="white">
                                        <use xlink:href="#path-1"></use>
                                    </mask>
                                    <g id="Clip-2"></g>
                                    <path d="M9.82701176,0.111094118 L13.3451294,12.0728588 L16.8632471,0.111094118 L19.4112471,0.111094118 L26.4030118,0.111094118 L26.4030118,1.29944706 L22.8116,7.48744706 C24.0732471,7.8918 25.0277176,8.62803529 25.6750118,9.69532941 C26.3214824,10.7634471 26.6451294,12.0168588 26.6451294,13.4555647 C26.6451294,15.2360353 26.1716,16.7323882 25.2261882,17.9454471 C24.2791294,19.1585059 23.0545412,19.7646235 21.5499529,19.7646235 C20.4176,19.7646235 19.4310118,19.4047412 18.5893647,18.6849765 C17.7485412,17.9652118 17.1259529,16.9909765 16.7216,15.7614471 L18.7112471,14.9362706 C19.0019529,15.6807412 19.3865412,16.2670941 19.8633647,16.6953294 C20.3410118,17.1235647 20.9034824,17.3385059 21.5499529,17.3385059 C22.2293647,17.3385059 22.8033647,16.9588588 23.2727765,16.1979176 C23.7421882,15.4378 23.9760706,14.5245059 23.9760706,13.4555647 C23.9760706,12.2754471 23.7248941,11.3613294 23.2241882,10.7140353 C22.6419529,9.95391765 21.7278353,9.57344706 20.4818353,9.57344706 L19.5117176,9.57344706 L19.5117176,8.4098 L22.9087765,2.53721176 L18.8084235,2.53721176 L18.5753647,2.93415294 L13.5880706,19.7646235 L13.3451294,19.7646235 L9.70595294,7.58462353 L6.06595294,19.7646235 L5.82383529,19.7646235 L-0.000164705882,0.111094118 L2.54783529,0.111094118 L6.06595294,12.0728588 L8.44430588,4.01791765 L7.27983529,0.111094118 L9.82701176,0.111094118 Z" id="Fill-1" fill="#0067B1" mask="url(#mask-2)"></path>
                                </g>
                                <g id="Group-6" transform="translate(37.058824, 0.000000)">
                                    <mask id="mask-4" fill="white">
                                        <use xlink:href="#path-3"></use>
                                    </mask>
                                    <g id="Clip-5"></g>
                                    <path d="M2.58456471,0.111094118 C2.08468235,0.111094118 1.63503529,0.291447059 1.29491765,0.637329412 C0.933388235,1.00297647 0.732447059,1.47815294 0.732447059,1.96732941 C0.732447059,2.45815294 0.922682353,2.91109412 1.27350588,3.26768235 C1.63009412,3.62838824 2.0888,3.82438824 2.58456471,3.82438824 C3.0688,3.82438824 3.53821176,3.62838824 3.90468235,3.27262353 C4.25550588,2.93250588 4.44656471,2.47874118 4.44656471,1.96732941 C4.44656471,1.47238824 4.24974118,1.00791765 3.90962353,0.662858824 C3.55385882,0.301329412 3.08938824,0.111094118 2.58456471,0.111094118 L2.58456471,0.111094118 Z M4.19868235,1.98297647 C4.19868235,2.41121176 4.03397647,2.80815294 3.73009412,3.10215294 C3.40974118,3.4118 3.0128,3.57650588 2.57385882,3.57650588 C2.16127059,3.57650588 1.75362353,3.40685882 1.44974118,3.09721176 C1.14503529,2.78756471 0.974564706,2.39062353 0.974564706,1.96732941 C0.974564706,1.54485882 1.1508,1.13227059 1.46538824,0.812741176 C1.75856471,0.512976471 2.15550588,0.353211765 2.58950588,0.353211765 C3.03256471,0.353211765 3.42950588,0.518741176 3.73915294,0.832505882 C4.03891765,1.13227059 4.19868235,1.53497647 4.19868235,1.98297647 L4.19868235,1.98297647 Z M2.63562353,0.879447059 L1.84174118,0.879447059 L1.84174118,2.98438824 L2.23868235,2.98438824 L2.23868235,2.08591765 L2.63068235,2.08591765 L3.05891765,2.98438824 L3.50197647,2.98438824 L3.03256471,2.02497647 C3.33727059,1.96238824 3.51268235,1.75650588 3.51268235,1.45756471 C3.51268235,1.07544706 3.22362353,0.879447059 2.63562353,0.879447059 L2.63562353,0.879447059 Z M2.56397647,1.13721176 C2.93538824,1.13721176 3.10503529,1.24015294 3.10503529,1.49874118 C3.10503529,1.7458 2.93538824,1.83391765 2.57385882,1.83391765 L2.23868235,1.83391765 L2.23868235,1.13721176 L2.56397647,1.13721176 Z" id="Fill-4" fill="#000000" mask="url(#mask-4)"></path>
                                </g>
                                <path d="M36.5197412,8.23529412e-05 L36.9323294,2.50855294 L35.4713882,5.30361176 C35.4713882,5.30361176 34.9105647,4.11772941 33.9783294,3.4622 C33.1935059,2.90878824 32.6820941,2.78855294 31.8824471,2.95325882 C30.8555059,3.16572941 29.6910353,4.39361176 29.1829176,5.90725882 C28.5751529,7.71902353 28.5693882,8.59608235 28.5471529,9.40149412 C28.5133882,10.6919647 28.7168,11.4545529 28.7168,11.4545529 C28.7168,11.4545529 27.8298588,9.81408235 27.8380371,7.41102353 C27.8438588,5.69561176 28.1131529,4.13914118 28.9078588,2.60408235 C29.6053882,1.25431765 30.6438588,0.444788235 31.5645647,0.349258824 C32.5173882,0.251258824 33.2700941,0.709964706 33.8515059,1.20655294 C34.4625647,1.72867059 35.0793882,2.86843529 35.0793882,2.86843529 L36.5197412,8.23529412e-05 Z" id="Fill-7" fill="#000000"></path>
                                <path d="M36.6991059,14.1971529 C36.6991059,14.1971529 36.0542824,15.3509176 35.6515765,15.7956235 C35.2488706,16.2395059 34.5291059,17.0243294 33.6396941,17.4155059 C32.7502824,17.8075059 32.2849882,17.8816235 31.4054588,17.7959765 C30.5284,17.7119765 29.7122824,17.2030353 29.4265176,16.9922118 C29.1399294,16.7805647 28.4102824,16.1555059 27.9968706,15.5732706 C27.5842824,14.9910353 26.9378118,13.8265647 26.9378118,13.8265647 C26.9378118,13.8265647 27.2985176,14.9935059 27.5225176,15.4884471 C27.6534588,15.7742118 28.0512235,16.6455059 28.6169882,17.4048 C29.1432235,18.1130353 30.1668706,19.3310353 31.7233412,19.6069176 C33.2798118,19.8819765 34.3487529,19.1836235 34.6139294,19.0148 C34.8782824,18.8451529 35.4366353,18.3773882 35.7899294,18.0002118 C36.1580471,17.6065647 36.5064,17.1025647 36.6991059,16.8011529 C36.8407529,16.5812706 37.0696941,16.1349176 37.0696941,16.1349176 L36.6991059,14.1971529 Z" id="Fill-9" fill="#000000"></path>
                            </g>
                        </g>
                    </g>
                </g>
            </g>
        </g>
    </g>
</svg>